<svg version="1.2" xmlns="http://www.w3.org/2000/svg" viewBox="0 0 200 75" width="200" height="75">
	<title>New Project</title>
	<style>
		.s0 { fill: #daf561 } 
	</style>
	<path id="&lt;Compound Path&gt;" class="s0" d="m8.6 63c6 3.9 14.2 5.9 22.5 6.9 9.2 1.1 18.8 1 28-0.1 17.6-2.1 34.2-8.1 52.4-8 8.6 0.1 16.9 1.7 24.8 4 17 5.1 32.7 14.2 51.3 5.1 8.7-4.3 13.6-11.8 12.2-18.9-1.8-9-12.4-16-20.5-23.3-6.6-5.9-12-12.4-20.4-17.2-10.7-6-24.9-8.3-38.6-9.3-13.4-1.1-26.9-3.6-40.3-1.1-4.9 0.9-9.5 2.2-14 3.6q-7 2.3-13.7 4.8c-8.8 3.3-17.5 6.8-25.6 10.7-7.2 3.6-14 7.6-19 12.6-4.7 4.6-7.6 10-7.6 15.6-0.1 5.4 2.6 10.7 8.5 14.6z"/>
</svg>