<?xml version="1.0" encoding="UTF-8" standalone="no"?>
<svg
   id="Layer_2"
   data-name="Layer 2"
   viewBox="0 0 387 160"
   version="1.1"
   width="387"
   height="160"
   xmlns="http://www.w3.org/2000/svg"
   xmlns:svg="http://www.w3.org/2000/svg">
  <defs
     id="defs1">
    <style
       id="style1">
      .cls-1 {
        fill: #231f20;
      }
    </style>
  </defs>
  <g
     id="Layer_1-2"
     data-name="Layer 1">
    <path
       class="cls-1"
       d="m 387,160 -0.09,-54.84 c -3.64,0.33 -7.63,0.2 -12.54,-0.55 -1.98,-0.3 -3.94,-0.68 -5.84,-1.12 -19.52,-4.52 -32.74,-15.69 -43.36,-24.66 -1.46,-1.24 -2.88,-2.44 -4.27,-3.58 -9.62,-7.95 -18.52,-14.12 -29.97,-8.95 -7.87,3.55 -14.35,11.44 -19.81,24.1 -3.91,9.05 -6.85,19.31 -9.7,29.22 -3.69,12.86 -7.17,25.01 -12.12,31.8 -2.4,3.3 -4.95,5.07 -7.81,5.43 -8.28,1.02 -15.22,-10.58 -22.6,-22.87 -5.31,-8.84 -10.8,-17.98 -17.55,-24.08 -5.16,-4.67 -10.41,-6.94 -16.04,-6.94 h -0.35 c -9.36,0.14 -14.9,6.26 -20.25,12.18 -5.26,5.82 -10.24,11.33 -18.66,11.33 h -0.33 c -7.9,-0.11 -11.95,-5.43 -18.08,-13.48 C 121.33,104.71 113.48,94.41 97.9,85.51 92.45,82.39 88.01,80.6 84.44,79.16 78.17,76.63 74.03,74.96 69.5,68.44 63.9,60.37 63.28,53.11 62.62,45.43 62.1,39.31 61.55,32.99 58.44,26.09 52.86,13.73 43.28,9.67 33.75,7.13 29.07,5.88 23.85,4.9 18.32,3.87 15.09,3.27 11.71,2.63 8.19,1.9 5.63,1.33 2.91,0.73 0,0 v 160 c 43.667083,0 343.14674,0 387,0 z"
       id="path1"
       style="fill:#3451a3;fill-opacity:1" />
  </g>
</svg>
