<?xml version="1.0" encoding="UTF-8"?>
<svg id="Layer_2" data-name="Layer 2" xmlns="http://www.w3.org/2000/svg" viewBox="0 0 68.7 61.67">
  <defs>
    <style>
      .cls-1 {
        fill: #231f20;
      }
    </style>
  </defs>
  <g id="Layer_1-2" data-name="Layer 1">
    <g>
      <path class="cls-1" d="m4.03,5.6c4.69,6.73,9.53,13.7,19.51,19.13l2.76,1.48c3.42,1.82,7.68,4.08,13.23,8.17,6.22,4.59,9.99,8.76,13.64,12.81.94,1.05,1.87,2.07,2.81,3.08,2.71,2.88,5.36,5.42,7.87,7.55,1.67,1.42,3.29,2.69,4.87,3.86v-3.67c-.97-.76-1.96-1.55-2.98-2.41-2.42-2.06-4.99-4.53-7.63-7.33-.93-.99-1.84-2-2.77-3.03-3.57-3.95-7.62-8.43-14.07-13.2-5.72-4.22-10.08-6.54-13.59-8.4l-2.74-1.46C15.56,17.06,11.13,10.68,6.43,3.93c-.91-1.3-1.82-2.62-2.78-3.93H0c1.4,1.82,2.7,3.69,4.03,5.6Z"/>
      <path class="cls-1" d="m43.44,17.23l-2.98-1.53C31.94,11.21,27.02,5.81,22.71,0h-3.62c4.71,6.55,10.12,13.08,20,18.28l3.02,1.55c3.92,2,8.81,4.48,15.23,9.09,4.77,3.45,8.29,6.67,11.36,9.77v-4.09c-2.68-2.56-5.79-5.26-9.65-8.05-6.61-4.75-11.61-7.29-15.62-9.33Z"/>
      <path class="cls-1" d="m54.65,11.83l3.39,1.68c2.99,1.46,6.49,3.19,10.67,5.73v-3.41c-3.62-2.11-6.7-3.63-9.38-4.94l-3.34-1.66c-5.43-2.78-9.54-5.89-12.96-9.23h-4.06c3.98,4.28,8.88,8.34,15.69,11.83Z"/>
      <path class="cls-1" d="m68.7,1.27c-.74-.42-1.46-.84-2.15-1.27h-5.22c2.21,1.6,4.65,3.13,7.38,4.58V1.27Z"/>
    </g>
  </g>
</svg>