<?xml version="1.0" encoding="UTF-8"?>
<svg id="Layer_2" data-name="Layer 2" xmlns="http://www.w3.org/2000/svg" viewBox="0 0 386.88 242.02">
  <defs>
    <style>
      .cls-1 {
        fill: #3451A3;
      }
    </style>
  </defs>
  <g id="Layer_1-2" data-name="Layer 1">
    <g>
      <path class="cls-1" d="m378.99,88.73c-6.8.47-16.11,1.11-28.75,3.56-7.34,1.42-12.83,3.04-16.8,4.29-5.3,1.67-9.27,3.31-12.46,4.63-6.48,2.68-10.39,4.29-18.2,3.35-1.18-.14-2.33-.31-3.44-.52-11.48-2.24-19.4-8.38-25.76-13.31-.88-.68-1.73-1.34-2.56-1.97-5.98-4.52-11.51-7.99-18.58-4.67-4.92,2.33-8.84,7.06-12.33,14.88-2.42,5.4-4.28,11.47-6.09,17.34-2.38,7.76-4.63,15.08-7.72,19.19-1.37,1.85-2.81,2.86-4.4,3.1-4.8.69-9.11-5.9-13.68-12.9-3.21-4.91-6.53-10-10.53-13.48-3.09-2.69-6.31-4.01-9.81-4.01-.17,0-.35,0-.52,0-5.8.21-9.28,3.91-12.64,7.48-3.23,3.43-6.27,6.67-11.28,6.72-4.93-.01-7.96-3.07-12.41-7.8-4.37-4.65-9.81-10.44-19.55-15.56-3.52-1.86-6.35-2.89-8.83-3.81-4.15-1.52-6.89-2.53-9.91-6.31-3.8-4.78-4.67-9.16-5.58-13.81-.73-3.69-1.48-7.5-3.69-11.7-3.74-7.04-9.29-10.03-16.49-12.37-4.24-1.38-9.02-2.53-13.65-3.64l-2.62-.63c-8.71-2.12-17.05-5.52-25.49-10.41-3.73-2.16-5.04-3.32-8.23-6.14-2.73-2.41-6.85-6.05-14.96-12.46-.54-.43-1.1-.89-1.66-1.36l-7.78-6.3C8.06,6.47,3.89,3.1,0,0v3.73c3.36,2.69,6.93,5.58,10.77,8.68l7.75,6.28c.58.48,1.15.95,1.71,1.4,8.05,6.36,12.13,9.97,14.84,12.36,3.24,2.87,4.72,4.17,8.7,6.48,8.69,5.03,17.28,8.54,26.26,10.72l2.62.63c4.57,1.1,9.3,2.23,13.43,3.58,6.52,2.12,11.53,4.79,14.81,10.96,2.01,3.81,2.72,7.41,3.41,10.9.94,4.78,1.92,9.73,6.16,15.06,3.52,4.42,6.9,5.66,11.18,7.24,2.4.88,5.13,1.88,8.48,3.65,9.3,4.9,14.56,10.49,18.78,14.98,4.61,4.91,8.37,8.77,14.57,8.72,6.25-.06,10.04-4.09,13.38-7.64,3.09-3.29,6.02-6.4,10.62-6.57,2.92-.09,5.65.97,8.31,3.28,3.69,3.21,6.9,8.13,10,12.87,4.79,7.33,9.32,14.28,15.36,14.28.39,0,.79-.03,1.19-.09,2.39-.36,4.45-1.74,6.31-4.24,3.39-4.51,5.71-12.07,8.18-20.08,1.78-5.79,3.61-11.77,5.96-17.01,3.15-7.05,6.72-11.45,10.91-13.43,5.15-2.43,9.12-.52,15.57,4.35.82.62,1.66,1.27,2.53,1.94,6.61,5.12,14.83,11.5,26.99,13.86,1.18.23,2.4.41,3.65.56,8.58,1.03,12.98-.8,19.66-3.56,3.3-1.36,7.04-2.91,12.22-4.55,3.89-1.23,9.28-2.82,16.48-4.21,12.46-2.41,21.67-3.05,28.39-3.51,2.94-.2,5.48-.38,7.7-.66v-2.94c-2.16.29-4.74.47-7.9.69Z"/>
      <path class="cls-1" d="m371.05,107.56c-6.58,1.23-12.63,2.73-19.05,4.7-6.02,1.85-10.52,3.67-14.13,5.13-7.38,2.98-11.84,4.79-20.76,3.62-1.35-.17-2.66-.38-3.92-.64-13.1-2.69-22.08-9.84-29.3-15.58-.99-.79-1.95-1.55-2.89-2.28-6.71-5.21-12.91-9.22-20.86-5.53-5.53,2.59-9.93,7.9-13.83,16.73-2.72,6.13-4.8,13.04-6.81,19.72-2.64,8.78-5.14,17.07-8.6,21.72-1.57,2.14-3.23,3.3-5.07,3.56-5.51.78-10.33-6.84-15.46-14.89-3.63-5.7-7.39-11.59-11.94-15.6-3.51-3.09-7.13-4.59-11.06-4.59-.16,0-.32,0-.48,0-6.52.2-10.41,4.38-14.17,8.43-3.65,3.92-7.09,7.62-12.81,7.64h-.04c-5.56,0-8.71-3.55-13.46-8.92-4.77-5.39-10.7-12.09-21.64-17.96-3.93-2.13-7.05-3.3-9.8-4.34-4.56-1.72-7.57-2.85-10.88-7.17-4.16-5.43-4.97-10.39-5.83-15.63-.69-4.18-1.4-8.5-3.8-13.24-4.28-8.44-11.25-11.57-18.14-13.69-4.22-1.31-8.83-2.35-13.71-3.45l-4.42-1.01c-9.99-2.33-19.34-5.97-28.57-11.13-4.16-2.33-5.61-3.57-9.12-6.58-3.06-2.62-7.68-6.59-16.91-13.69-.63-.48-1.26-.99-1.92-1.51l-1.69-1.32v3.71c.62.49,1.23.98,1.83,1.44,9.16,7.05,13.75,10.99,16.79,13.59,3.55,3.05,5.18,4.44,9.6,6.91,9.48,5.3,19.07,9.03,29.34,11.42l4.43,1.01c4.82,1.09,9.38,2.12,13.49,3.39,7.25,2.24,12.81,5.18,16.39,12.22,2.2,4.34,2.87,8.43,3.52,12.4.88,5.37,1.8,10.93,6.4,16.94,3.81,4.98,7.5,6.37,12.17,8.12,2.67,1,5.69,2.14,9.44,4.18,10.48,5.63,16.22,12.12,20.84,17.33,4.89,5.53,8.76,9.9,15.64,9.9h.04c6.99-.02,11.03-4.37,14.94-8.57,3.51-3.77,6.82-7.33,12.12-7.5,3.31-.05,6.46,1.16,9.52,3.86,4.24,3.73,7.88,9.45,11.4,14.97,5.33,8.37,10.39,16.3,17.11,16.3.4,0,.81-.03,1.23-.09,2.66-.38,4.95-1.92,7.01-4.71,3.76-5.05,6.33-13.58,9.05-22.61,1.99-6.59,4.04-13.41,6.68-19.38,3.55-8.03,7.61-13.03,12.4-15.26,5.89-2.74,10.63-.41,17.84,5.19.93.72,1.88,1.48,2.86,2.26,7.46,5.94,16.74,13.33,30.53,16.16,1.33.27,2.71.5,4.13.68,9.69,1.26,14.68-.76,22.23-3.81,3.75-1.52,8-3.23,13.9-5.05,6.31-1.94,12.26-3.41,18.73-4.62,5.68-1.07,10.76-1.81,15.3-2.34v-2.94c-4.69.55-9.94,1.31-15.84,2.41Z"/>
      <path class="cls-1" d="m370.55,127.94c-6.73,2.03-11.77,4.02-15.81,5.63-8.27,3.29-13.25,5.28-23.33,3.89-1.51-.21-2.98-.46-4.4-.76-14.71-3.15-24.75-11.31-32.82-17.86-1.1-.9-2.18-1.77-3.23-2.6-7.44-5.9-14.33-10.45-23.14-6.38-6.06,2.8-11.07,8.88-15.33,18.57-3.02,6.86-5.31,14.61-7.53,22.1-2.91,9.8-5.65,19.05-9.48,24.23-1.78,2.42-3.67,3.74-5.76,4.02-6.16.85-11.55-7.77-17.24-16.88-4.05-6.48-8.24-13.19-13.34-17.72-3.92-3.49-7.96-5.18-12.32-5.18-.14,0-.29,0-.43,0-7.23.19-11.53,4.85-15.69,9.37-4.06,4.4-7.89,8.56-14.3,8.56h-.05c-6.16-.02-9.53-4.01-14.62-10.05-5.15-6.11-11.57-13.71-23.68-20.35-4.3-2.37-7.71-3.69-10.71-4.84-4.99-1.92-8.28-3.19-11.9-8.05-4.51-6.09-5.27-11.62-6.09-17.47-.65-4.67-1.32-9.49-3.9-14.78-4.61-9.42-12.23-12.78-19.78-15.02-4.27-1.26-8.98-2.27-13.95-3.34-1.97-.42-3.98-.85-6.02-1.31-11.28-2.54-21.63-6.41-31.66-11.85-4.6-2.5-6.08-3.73-10.01-7.03-1.11-.93-2.42-2.02-4.02-3.34v3.78c.79.66,1.5,1.25,2.15,1.79,3.98,3.34,5.63,4.72,10.49,7.36,10.27,5.57,20.87,9.53,32.41,12.13,2.05.46,4.07.9,6.05,1.32,4.92,1.06,9.57,2.05,13.74,3.28,7.99,2.36,14.1,5.56,17.99,13.5,2.37,4.87,3.01,9.46,3.63,13.9.83,5.96,1.69,12.12,6.64,18.81,4.12,5.54,8.12,7.08,13.19,9.03,2.91,1.12,6.22,2.4,10.35,4.68,11.63,6.38,17.85,13.75,22.85,19.67,5.22,6.18,9.34,11.06,16.85,11.09h.06c7.69,0,12.14-4.83,16.45-9.5,3.92-4.25,7.62-8.27,13.62-8.42,3.84-.12,7.27,1.36,10.74,4.44,4.79,4.25,8.86,10.77,12.81,17.08,5.88,9.41,11.44,18.32,18.84,18.32.42,0,.84-.03,1.27-.09,2.92-.4,5.44-2.09,7.72-5.19,4.13-5.59,6.95-15.08,9.92-25.13,2.2-7.4,4.46-15.06,7.41-21.75,3.95-9.01,8.49-14.61,13.88-17.1,6.68-3.08,12.01-.39,20.1,6.02,1.04.82,2.11,1.69,3.2,2.58,8.31,6.75,18.66,15.15,34.05,18.45,1.49.32,3.03.58,4.62.8,10.82,1.5,16.39-.72,24.8-4.06,4.2-1.67,8.96-3.56,15.57-5.55,5.08-1.53,10.19-2.83,15.49-3.95v-2.98c-5.6,1.16-10.99,2.52-16.33,4.13Z"/>
      <path class="cls-1" d="m40.04,73.58c5.09,1.04,9.89,2.02,14.17,3.24,8.72,2.48,15.39,5.95,19.58,14.77,2.55,5.4,3.15,10.48,3.74,15.4.77,6.55,1.57,13.32,6.89,20.68,4.43,6.11,8.53,7.72,14.21,9.95,3.17,1.24,6.75,2.65,11.27,5.18,12.78,7.12,19.48,15.38,24.86,22.01,5.53,6.82,9.9,12.21,18.01,12.27,8.45.04,13.35-5.27,18.07-10.43,4.34-4.74,8.43-9.21,15.12-9.35,4.28-.09,8.08,1.55,11.96,5.02,5.33,4.77,9.84,12.1,14.21,19.2,6.42,10.44,12.5,20.33,20.57,20.33.44,0,.88-.03,1.33-.09,3.18-.41,5.94-2.26,8.42-5.66,4.51-6.13,7.57-16.59,10.81-27.66,2.4-8.21,4.89-16.7,8.12-24.12,4.36-10,9.38-16.19,15.36-18.93,7.47-3.41,13.4-.37,22.38,6.86,1.13.91,2.29,1.87,3.48,2.85,9.18,7.57,20.6,16.99,37.63,20.78,1.65.36,3.35.67,5.1.92,11.94,1.72,18.08-.68,27.37-4.32,3.98-1.56,8.42-3.29,14.2-5.12v-3.06c-6.35,1.97-11.25,3.88-15.27,5.46-9.17,3.59-14.71,5.76-25.89,4.15-1.68-.24-3.31-.53-4.88-.88-16.34-3.63-27.46-12.81-36.4-20.18-1.2-.99-2.37-1.95-3.51-2.88-8.17-6.58-15.73-11.67-25.42-7.24-6.66,3.05-12.17,9.73-16.82,20.42-3.31,7.59-5.82,16.17-8.25,24.47-3.17,10.82-6.16,21.04-10.36,26.76-1.99,2.72-4.1,4.19-6.44,4.49-6.91.91-12.77-8.71-19.03-18.88-4.47-7.27-9.1-14.79-14.75-19.84-4.34-3.88-8.78-5.77-13.57-5.77-.13,0-.27,0-.4,0-7.94.17-12.65,5.32-17.21,10.3-4.46,4.88-8.68,9.48-15.76,9.48h-.13c-6.74-.05-10.33-4.49-15.77-11.19-5.54-6.83-12.43-15.33-25.7-22.73-4.69-2.62-8.38-4.07-11.63-5.34-5.41-2.12-8.99-3.53-12.91-8.94-4.87-6.75-5.59-12.85-6.35-19.31-.61-5.15-1.24-10.47-4-16.3-4.93-10.4-13.21-14-21.42-16.33-4.38-1.25-9.24-2.24-14.39-3.29-2.41-.49-4.9-1-7.45-1.56-12.14-2.65-22.73-6.42-33.17-11.77v3.27c10.25,5.11,20.67,8.76,32.55,11.35,2.56.56,5.06,1.07,7.49,1.57Z"/>
      <path class="cls-1" d="m360.04,170.35c-1.81-.27-3.61-.61-5.36-1-17.87-4.07-30.02-14.2-39.78-22.34-1.37-1.14-2.7-2.25-4-3.3-8.55-7.01-17.11-12.91-27.7-8.1-7.27,3.3-13.26,10.58-18.32,22.26-3.61,8.32-6.34,17.74-8.97,26.85-3.43,11.84-6.66,23.03-11.24,29.28-2.19,3.01-4.52,4.63-7.13,4.96-7.53.95-13.99-9.64-20.81-20.87-4.89-8.06-9.95-16.39-16.15-21.96-4.75-4.28-9.6-6.36-14.82-6.36-.12,0-.24,0-.36,0-8.65.16-13.77,5.79-18.73,11.24-4.91,5.4-9.5,10.45-17.44,10.4-7.32-.09-11.14-4.96-16.92-12.33-5.92-7.55-13.29-16.95-27.72-25.1-5.07-2.87-9.22-4.52-12.55-5.85-5.84-2.33-9.7-3.86-13.93-9.83-5.23-7.41-5.9-14.09-6.62-21.16-.57-5.63-1.15-11.46-4.09-17.82-5.26-11.38-14.19-15.21-23.06-17.65-4.52-1.24-9.55-2.22-14.87-3.26-2.83-.55-5.78-1.13-8.82-1.78-5.36-1.14-12.46-2.86-20.66-5.8v3.1c7.93,2.79,14.81,4.45,20.05,5.56,3.06.65,6.02,1.23,8.87,1.78,5.27,1.03,10.24,2,14.66,3.21,9.47,2.6,16.69,6.33,21.18,16.06,2.73,5.92,3.29,11.5,3.84,16.89.72,7.14,1.46,14.52,7.14,22.56,4.73,6.67,9.13,8.43,15.23,10.86,3.42,1.36,7.29,2.91,12.19,5.68,13.93,7.86,21.1,17.01,26.86,24.36,5.85,7.46,10.46,13.35,19.18,13.45,9.16.11,14.51-5.72,19.63-11.36,4.75-5.22,9.23-10.15,16.62-10.29,4.58-.07,8.89,1.75,13.18,5.6,5.88,5.29,10.83,13.43,15.61,21.31,6.97,11.47,13.56,22.34,22.3,22.34.45,0,.91-.03,1.37-.09,3.44-.43,6.43-2.44,9.12-6.13,4.88-6.67,8.19-18.1,11.69-30.19,2.61-9.02,5.31-18.34,8.85-26.49,4.76-10.98,10.27-17.77,16.85-20.76,8.29-3.76,14.8-.36,24.64,7.7,1.29,1.05,2.61,2.15,3.97,3.28,10,8.34,22.44,18.73,41,22.95,1.82.41,3.7.76,5.58,1.04,11.9,1.77,18.51-.24,27.28-3.58v-3.13c-9.16,3.53-15.2,5.55-26.85,3.82Z"/>
      <path class="cls-1" d="m17.74,88.9c5.47,1.03,10.64,1.99,15.21,3.21,10.21,2.73,17.99,6.72,22.79,17.34,2.91,6.45,3.43,12.52,3.93,18.39.66,7.73,1.35,15.72,7.39,24.43,5.03,7.24,9.74,9.14,16.25,11.77,3.67,1.48,7.83,3.16,13.11,6.18,15.07,8.61,22.72,18.65,28.86,26.71,6.17,8.1,11.04,14.49,20.36,14.63,9.94.12,15.66-6.16,21.2-12.28,5.16-5.71,10.04-11.1,18.13-11.22,5.08-.09,9.7,1.94,14.39,6.19,6.43,5.81,11.8,14.76,17,23.42,7.51,12.51,14.63,24.35,24.05,24.35.47,0,.94-.03,1.42-.09,3.7-.46,6.91-2.62,9.82-6.6,5.25-7.21,8.8-19.6,12.57-32.71,2.82-9.83,5.73-19.99,9.57-28.87,5.16-11.96,11.16-19.35,18.33-22.59,9.06-4.1,16.17-.34,26.91,8.54,1.38,1.14,2.79,2.33,4.25,3.56,10.86,9.18,24.38,20.59,44.59,25.28,1.97.46,4.01.85,6.06,1.16,5.09.78,9.23.93,12.98.62v-2.95c-3.64.33-7.63.2-12.54-.55-1.98-.3-3.94-.68-5.84-1.12-19.52-4.52-32.74-15.69-43.36-24.66-1.46-1.24-2.88-2.44-4.27-3.58-9.62-7.95-18.52-14.12-29.97-8.95-7.87,3.55-14.35,11.44-19.81,24.1-3.91,9.05-6.85,19.31-9.7,29.22-3.69,12.86-7.17,25.01-12.12,31.8-2.4,3.3-4.95,5.07-7.81,5.43-8.28,1.02-15.22-10.58-22.6-22.87-5.31-8.84-10.8-17.98-17.55-24.08-5.16-4.67-10.41-6.94-16.04-6.94-.12,0-.23,0-.35,0-9.36.14-14.9,6.26-20.25,12.18-5.26,5.82-10.24,11.33-18.66,11.33-.11,0-.22,0-.33,0-7.9-.11-11.95-5.43-18.08-13.48-6.3-8.28-14.15-18.58-29.73-27.48-5.45-3.12-9.89-4.91-13.46-6.35-6.27-2.53-10.41-4.2-14.94-10.72-5.6-8.07-6.22-15.33-6.88-23.01-.52-6.12-1.07-12.44-4.18-19.34-5.58-12.36-15.16-16.42-24.69-18.96-4.68-1.25-9.9-2.23-15.43-3.26-3.23-.6-6.61-1.24-10.13-1.97-2.51-.52-5.23-1.12-8.14-1.85v3.01c2.68.66,5.21,1.22,7.55,1.71,3.54.73,6.94,1.37,10.19,1.98Z"/>
    </g>
  </g>
</svg>