<?xml version="1.0" encoding="UTF-8"?>
<svg id="Layer_2" data-name="Layer 2" xmlns="http://www.w3.org/2000/svg" viewBox="0 0 340.73 126.52">
  <defs>
    <style>
      .cls-1 {
        fill: #231f20;
      }
    </style>
  </defs>
  <g id="Layer_1-2" data-name="Layer 1">
    <g>
      <path class="cls-1" d="m171.07,125.68c2-1.35,3.47-1.96,4.37-1.8,1.12.19,2.27,1.22,3.5,2.65h3.76c-2.18-2.8-4.18-5.09-6.78-5.53-1.8-.3-3.88.46-6.78,2.46l-.29.2-.17.31c-.46.85-1.28,1.68-2.3,2.56h4.08c.21-.28.42-.55.59-.84Z"/>
      <path class="cls-1" d="m124.89,126.23c2.65-.52,4.8-.24,6.84.29h19.48c3.52-2.18,6.47-5.51,9.35-8.77l1.23-1.39c2.66-2.97,5.31-6.21,7.86-9.63,1.75-2.34,3.92-3.22,5.33-3.02,2.21.3,4.29,3.44,6.7,7.09,3.43,5.18,7.69,11.63,15.15,14.18,3.77,1.29,7.19.92,10.2.6,3.38-.36,5.45-.48,7.13.93h3.81c-.39-.65-.88-1.28-1.51-1.88-2.8-2.69-6.16-2.33-9.74-1.95-2.84.3-5.78.62-8.94-.46-6.52-2.23-10.31-7.97-13.66-13.03-2.8-4.24-5.22-7.9-8.75-8.37-2.76-.37-5.86,1.22-8.06,4.16-2.5,3.35-5.09,6.52-7.7,9.43l-1.24,1.4c-3.99,4.51-8.11,9.18-13.42,10.08-3.73.63-6.47-.29-9.38-1.26-3.23-1.08-6.56-2.19-11.23-1.28-2,.39-4.56,1-8.39,2.6-.47.2-.94.38-1.41.56h8.98c.56-.13,1.03-.22,1.38-.29Z"/>
      <path class="cls-1" d="m87.43,122.22c.61-.38,1.24-.64,1.87-.91l.33-.14c.96-.43,1.96-.61,3.01-.81.55-.1,1.11-.21,1.67-.35l1.23-.28c.97-.22,1.95-.44,2.94-.74.55-.17,1.1-.31,1.65-.46l.64-.17c2.71-.73,5.54-1.69,8.42-2.86,4.21-1.71,7-2.24,8.19-2.47,5.05-.96,8.41.29,11.96,1.62,3.46,1.29,7.03,2.62,11.95,1.69,7.78-1.48,12.96-8.52,17.97-15.32l.42-.57c2.71-3.68,5.05-7.24,7.11-10.38l1.44-2.18c1.91-2.89,4.35-4.52,6.29-4.31,2.68.3,5.01,4.22,7.7,8.77,3.73,6.3,8.38,14.15,16.87,17.21,4.43,1.59,8.42,1.11,11.94.68,4.13-.5,6.57-.68,8.54,1.41,1.94,2.07,2.15,4.61,2.39,7.56.19,2.29.41,4.82,1.52,7.32h3.3c-1.46-2.39-1.69-4.9-1.9-7.56-.26-3.2-.53-6.51-3.17-9.32-3.08-3.28-6.93-2.81-11.02-2.31-3.35.41-6.81.83-10.6-.53-7.5-2.7-11.67-9.74-15.35-15.94-3.09-5.22-5.76-9.73-9.89-10.19-3.14-.34-6.5,1.75-9.05,5.61l-1.44,2.2c-2.04,3.11-4.35,6.63-7.01,10.24l-.42.57c-4.68,6.35-9.51,12.91-16.17,14.18-4.12.78-7.02-.3-10.38-1.56-3.6-1.34-7.68-2.87-13.53-1.76-1.28.24-4.26.81-8.74,2.63-2.77,1.13-5.49,2.05-8.08,2.75l-.62.17c-.59.15-1.18.31-1.77.49-.92.28-1.83.49-2.72.69l-1.27.29c-.52.13-1.03.22-1.53.32-1.17.22-2.37.45-3.63,1l-.31.13c-.74.32-1.5.64-2.27,1.12-2.96,1.85-5.07,4.08-6.43,6.78h3.37c1.1-1.64,2.62-3.07,4.6-4.31Z"/>
      <path class="cls-1" d="m72.63,125.49c-.33-2.47-.64-4.81.74-8.2,1.09-2.68,2.96-4.94,5.71-6.91.67-.48,1.36-.83,2.23-1.28,1.07-.57,2.16-.88,3.32-1.22.48-.14.96-.28,1.46-.44.53-.17,1.06-.33,1.59-.49.87-.26,1.74-.52,2.63-.83.63-.22,1.26-.42,1.89-.61l.46-.14c2.8-.87,5.71-1.9,8.65-3.06,4.36-1.72,7.29-2.27,8.54-2.5,6.19-1.15,10.25.49,14.18,2.08,3.78,1.53,7.69,3.11,13.09,2,9.25-1.92,15.18-11.17,20.4-19.34,2.26-3.52,4.32-7.08,6.13-10.22,1.1-1.89,2.13-3.67,3.11-5.29,2.27-3.75,5-5.84,7.27-5.63,3.16.3,5.73,5.01,8.7,10.47,4.04,7.42,9.08,16.66,18.61,20.22,5.1,1.9,9.66,1.3,13.68.76,4.71-.63,7.48-.86,9.7,1.69,2.18,2.51,2.26,5.57,2.35,9.11.09,3.45.19,7.36,2.46,11.09,4.26,6.97,11.88,6.82,20.72,6.67,7.11-.13,14.96-.25,22.81,3.1h6.27c-10.14-6.36-20.6-6.18-29.13-6.03-8.25.14-14.79.27-18.17-5.27-1.87-3.06-1.95-6.4-2.04-9.64-.09-3.77-.19-7.66-3.07-10.96-3.36-3.85-7.69-3.28-12.28-2.66-3.68.49-7.86,1.05-12.27-.6-8.5-3.17-13.05-11.52-17.06-18.88-3.37-6.19-6.28-11.54-10.99-11.98-3.45-.34-7.13,2.23-10.04,7.03-.99,1.63-2.03,3.43-3.13,5.34-1.8,3.11-3.85,6.64-6.06,10.11-4.92,7.68-10.49,16.39-18.54,18.06-4.51.94-7.71-.35-11.4-1.85-4.12-1.67-8.78-3.55-15.81-2.24-1.33.25-4.46.83-9.08,2.66-2.87,1.14-5.71,2.14-8.44,2.99l-.45.14c-.67.21-1.34.41-2,.65-.84.3-1.67.54-2.49.79-.55.16-1.1.33-1.65.5-.46.15-.92.28-1.37.41-1.25.36-2.55.73-4.03,1.52-.79.41-1.61.83-2.42,1.42-3.21,2.29-5.4,4.97-6.71,8.18-1.68,4.11-1.28,7.07-.93,9.69.03.22.06.43.08.64h2.94c-.04-.35-.09-.69-.13-1.03Z"/>
      <path class="cls-1" d="m292.89,117.77c-12.47-9.08-25.39-8.68-35.76-8.36-9.58.29-16.52.51-20.12-5.9-2.03-3.62-1.97-7.53-1.91-11.32.07-4.33.14-8.81-2.98-12.59-3.62-4.42-8.44-3.73-13.54-3.01-4.17.59-8.9,1.27-13.95-.67-9.51-3.65-14.44-13.31-18.78-21.82-3.65-7.15-6.8-13.33-12.07-13.76-3.82-.29-7.75,2.68-11.02,8.43-1.34,2.36-2.74,5.04-4.23,7.88-1.79,3.43-3.65,6.98-5.71,10.56-5.84,10.17-11.8,19.46-20.5,21.38-4.94,1.09-8.41-.4-12.44-2.13-4.63-1.99-9.87-4.24-18.09-2.74-1.27.23-4.65.85-9.43,2.69-2.75,1.06-5.74,2.16-8.8,3.23l-.31.11c-.74.26-1.48.52-2.22.81-.72.29-1.43.54-2.13.8-.72.26-1.44.53-2.15.81l-1.12.43c-1.37.52-2.79,1.06-4.21,1.94-.83.51-1.7,1.04-2.56,1.73-3.14,2.53-5.29,5.39-6.6,8.73-1.82,4.67-1.33,8.02-.9,10.97.34,2.32.66,4.52-.12,7.31-.33,1.17-.78,2.24-1.35,3.24h3.25c.35-.77.66-1.58.91-2.45.95-3.39.57-6,.2-8.53-.41-2.84-.81-5.53.74-9.48,1.11-2.85,2.98-5.31,5.71-7.52.72-.58,1.48-1.04,2.25-1.52,1.19-.74,2.42-1.21,3.72-1.7l1.17-.45c.69-.27,1.38-.52,2.08-.78.73-.27,1.46-.53,2.21-.83.7-.28,1.4-.52,2.11-.77l.31-.11c3.09-1.08,6.11-2.19,8.89-3.26,4.52-1.74,7.71-2.32,8.9-2.54,7.35-1.34,11.96.64,16.41,2.55,4.11,1.77,8.37,3.59,14.22,2.3,9.87-2.18,16.23-12.02,22.4-22.78,2.08-3.63,3.95-7.21,5.76-10.66,1.47-2.81,2.86-5.46,4.18-7.79,2.64-4.64,5.68-7.18,8.24-6.96,3.65.3,6.46,5.8,9.71,12.18,4.36,8.54,9.78,19.17,20.34,23.22,5.74,2.2,10.87,1.47,15.4.83,5.29-.75,8.4-1.03,10.87,1.97,2.44,2.95,2.38,6.54,2.31,10.69-.06,3.98-.13,8.48,2.28,12.79,4.47,7.96,12.93,7.7,22.76,7.4,10.44-.33,22.29-.69,33.95,7.8,2.75,2,4.97,4.14,6.94,6.39h3.8c-2.46-3.07-5.31-6.05-9.03-8.75Z"/>
      <path class="cls-1" d="m55.74,115.16c1.05-3.81.6-6.73.17-9.56-.5-3.21-.97-6.24.72-10.77,1.13-3.03,3-5.68,5.71-8.12.73-.66,1.49-1.2,2.28-1.75,1.35-.96,2.77-1.62,4.26-2.31l.73-.34c.9-.43,1.82-.81,2.74-1.21l1.61-.69c.82-.36,1.65-.68,2.47-1,3.17-1.22,6.28-2.39,9.12-3.46,4.22-1.58,7.31-2.22,9.26-2.57,8.52-1.52,13.66.79,18.64,3.03,4.64,2.09,9.03,4.04,15.35,2.59,11.16-2.59,18.17-14.36,24.39-26.2,2.01-3.82,3.83-7.61,5.6-11.27,1.77-3.68,3.44-7.15,5.05-10.13,3.02-5.57,6.33-8.52,9.22-8.31,4.15.3,7.2,6.6,10.73,13.9,4.67,9.66,10.48,21.67,22.08,26.22,6.41,2.51,12.1,1.66,17.13.91,5.88-.88,9.33-1.21,12.05,2.26,2.68,3.41,2.49,7.52,2.27,12.28-.21,4.5-.44,9.61,2.11,14.49,4.68,8.94,14,8.55,24.78,8.11,11.11-.45,24.91-1.02,38.17,8.53,6.89,4.96,10.88,10.65,15.11,16.67.02.03.04.05.05.08h3.57c-.41-.58-.82-1.17-1.24-1.76-4.18-5.95-8.5-12.1-15.79-17.36-14.07-10.14-28.44-9.55-39.99-9.08-10.61.43-18.25.75-22.07-6.55-2.19-4.18-1.98-8.66-1.78-13,.23-4.89.46-9.96-2.89-14.21-3.89-4.97-9.19-4.18-14.77-3.35-4.67.69-9.95,1.49-15.63-.74-10.53-4.13-15.83-15.1-20.52-24.77-3.92-8.11-7.31-15.12-13.14-15.54-4.26-.32-8.36,3.1-12,9.83-1.65,3.04-3.33,6.55-5.12,10.25-1.75,3.64-3.57,7.41-5.55,11.18-5.9,11.24-12.51,22.41-22.47,24.71-5.36,1.24-9.13-.45-13.49-2.41-5.13-2.3-10.94-4.91-20.35-3.24-2.07.37-5.34,1.05-9.78,2.71-2.85,1.07-5.97,2.25-9.15,3.47-.86.33-1.73.67-2.6,1.05l-1.58.68c-.96.41-1.9.81-2.84,1.25l-.71.33c-1.54.72-3.14,1.46-4.71,2.57-.82.58-1.7,1.2-2.55,1.97-3.07,2.76-5.19,5.79-6.49,9.27-1.96,5.24-1.38,8.96-.87,12.24.41,2.64.79,5.13-.09,8.33-1.53,5.5-5.3,9.2-12.61,12.14h6.57c4.06-2.52,7.38-6.06,8.85-11.36Z"/>
      <path class="cls-1" d="m25.68,123.67c9.12-2.64,18.83-6.78,21.74-17.42,1.16-4.23.64-7.47.13-10.59-.57-3.58-1.12-6.96.71-12.05,1.15-3.21,3.02-6.07,5.7-8.73.74-.73,1.5-1.36,2.3-1.98,1.61-1.28,3.3-2.19,5.09-3.15,1.26-.68,2.54-1.29,3.84-1.91l.59-.28c.84-.4,1.69-.76,2.53-1.12,2.87-1.21,5.94-2.4,9.37-3.66,4.86-1.78,8.44-2.4,9.62-2.61,9.69-1.69,15.37.96,20.87,3.51,4.98,2.32,9.69,4.52,16.47,2.87,12.44-3,20.14-16.86,26.38-29.61,1.98-4.05,3.8-8.1,5.56-12.01,2.02-4.5,3.93-8.75,5.8-12.35,2.31-4.44,5.88-9.66,9.9-9.66.1,0,.2,0,.3,0,4.65.3,7.94,7.4,11.74,15.62,4.99,10.77,11.19,24.17,23.82,29.21,7.06,2.82,13.6,1.8,18.85.98,5.88-.91,10.12-1.57,13.23,2.55,2.93,3.87,2.6,8.5,2.23,13.87-.35,5.03-.75,10.73,1.94,16.18,4.89,9.91,15.04,9.4,26.79,8.82,12.28-.61,27.54-1.36,42.39,9.25,7.72,5.52,12.16,11.79,16.86,18.43,2.04,2.89,4.12,5.81,6.49,8.67h3.83c-2.94-3.31-5.41-6.79-7.94-10.36-4.63-6.54-9.42-13.31-17.54-19.12-15.68-11.21-31.51-10.42-44.23-9.79-11.61.57-19.99.99-24.03-7.2-2.34-4.74-1.99-9.8-1.65-14.68.38-5.46.78-11.1-2.81-15.84-4.17-5.52-9.92-4.63-16.01-3.68-5.15.8-11,1.71-17.31-.81-11.55-4.61-17.23-16.89-22.25-27.73C182.76,8.26,179.14.42,172.75.01c-4.57-.28-8.96,3.48-12.98,11.22-1.91,3.68-3.84,7.96-5.88,12.5-1.75,3.9-3.56,7.92-5.52,11.93-5.94,12.16-13.22,25.36-24.44,28.06-5.78,1.38-9.85-.5-14.55-2.68-5.63-2.62-12.01-5.58-22.6-3.74-1.24.22-5.02.88-10.12,2.74-3.48,1.27-6.58,2.49-9.5,3.71-.89.37-1.78.75-2.66,1.18l-.58.28c-1.35.64-2.67,1.27-3.97,1.97-1.82.98-3.7,1.99-5.51,3.43-.87.69-1.73,1.39-2.55,2.2-3,2.98-5.08,6.19-6.39,9.82h0c-2.08,5.8-1.42,9.89-.84,13.5.47,2.95.92,5.74-.07,9.36-2.04,7.45-7.76,11.91-19.74,15.38-4.31,1.25-9.04,2.23-14.05,3.28-3.52.73-7.16,1.49-10.81,2.38h13.68c4.23-.89,8.25-1.77,11.99-2.86Z"/>
    </g>
  </g>
</svg>