<?xml version="1.0" encoding="UTF-8"?>
<svg id="Layer_2" data-name="Layer 2" xmlns="http://www.w3.org/2000/svg" viewBox="0 0 88.71 147.52">
  <defs>
    <style>
      .cls-1 {
        fill: #3451A3;
      }
    </style>
  </defs>
  <g id="Layer_1-2" data-name="Layer 1">
    <g>
      <path class="cls-1" d="m87.57,82.71c-4.99-4.19-7.01-6.96-7.21-9.88-.17-2.5,2.56-5.45,8.36-10.18v-3.76c-7.64,6.06-11.56,9.93-11.27,14.14.3,4.39,3.52,7.94,8.25,11.91.93.78,1.95,1.61,3.02,2.46v-3.76c-.39-.32-.78-.64-1.15-.94Z"/>
      <path class="cls-1" d="m78.11,96.2l-4.59-3.45c-4.26-3.19-7.95-5.95-10.91-8.39-5.68-4.67-7.94-7.79-8.06-11.12-.14-3.95,6.52-9.14,17.42-17.28,3.64-2.74,6.21-4.63,8.4-6.25,2.94-2.16,5.18-3.81,8.35-6.29v-3.72c-4.16,3.3-6.64,5.12-10.08,7.66-2.2,1.62-4.78,3.52-8.42,6.26-12.69,9.49-18.78,14.29-18.58,19.72.18,4.93,3.78,8.87,9.13,13.27,3.01,2.47,6.72,5.25,11.01,8.47l4.58,3.44c3.73,2.81,7.88,5.95,12.36,9.5v-3.71c-3.81-2.99-7.37-5.68-10.6-8.12Z"/>
      <path class="cls-1" d="m88.16,123.95c-7.03-5.46-13.33-10.35-19.04-14.67-5.12-3.88-9.82-7.28-14.09-10.38l-3.62-2.62c-5.66-4.09-10.13-7.33-13.75-10.25-6.38-5.15-8.88-8.62-8.92-12.37-.05-4.41,7.33-10.02,20.37-19.56,4.75-3.49,7.93-5.73,10.69-7.67,4.2-2.96,7.51-5.29,13.88-10.3,5.95-4.68,11.13-9.23,15.03-12.85v-4c-3.98,3.78-9.87,9.08-16.84,14.56-6.31,4.96-9.6,7.28-13.76,10.21-2.77,1.95-5.97,4.21-10.73,7.71-14.61,10.68-21.63,16.08-21.57,21.94.06,5.47,4.04,9.8,10,14.61,3.68,2.97,8.4,6.39,13.88,10.34l3.68,2.66c4.2,3.04,8.88,6.44,13.98,10.3,5.71,4.32,11.99,9.2,19.01,14.65l2.35,1.83v-3.71l-.56-.43Z"/>
      <path class="cls-1" d="m76.81,134.56l-3.92-2.99c-10.92-8.24-18.71-14.04-25.24-18.8-5.61-4.08-10.73-7.68-15.31-10.9l-3.04-2.14c-6.9-4.84-12.34-8.66-16.6-12.04-7.08-5.63-9.81-9.45-9.77-13.63.05-4.88,8.04-10.84,23.34-21.83,5.68-4.1,9.39-6.62,12.67-8.85,4.63-3.15,8.28-5.63,15.21-10.98,14.49-11.18,24.4-21.22,24.81-21.64,2.93-2.98,6.23-5.39,9.77-7.41V0c-4.29,2.28-8.31,5.11-11.85,8.71-.41.42-10.18,10.32-24.51,21.38-6.86,5.29-10.48,7.75-15.07,10.87-3.29,2.24-7.02,4.78-12.73,8.89C7.58,62.05.07,67.71,0,74.02c-.06,6,4.3,10.72,10.87,15.95,4.33,3.44,9.81,7.29,16.74,12.15l3.04,2.13c4.58,3.21,9.68,6.8,15.27,10.87,6.52,4.75,14.29,10.54,25.2,18.77l3.92,3c6.19,4.65,10.48,8.04,13.67,10.63v-3.75c-2.98-2.38-6.81-5.37-11.91-9.21Z"/>
    </g>
  </g>
</svg>