<?xml version="1.0" encoding="UTF-8"?>
<svg id="Layer_2" data-name="Layer 2" xmlns="http://www.w3.org/2000/svg" viewBox="0 0 98.27 254.71">
  <defs>
    <style>
      .cls-1 {
        fill: #3451A3;
      }
    </style>
  </defs>
  <g id="Layer_1-2" data-name="Layer 1">
    <g>
      <path class="cls-1" d="m9.91,67.02c6.2,3.53,8.93,5.23,8.79,8.52-.09,2.26-2.67,3.64-6.87,5.71-3.95,1.94-8.64,4.26-11.84,8.58v6.47c.08-.27.17-.55.26-.82,2.29-6.41,7.9-9.17,12.86-11.61,4.28-2.1,8.32-4.09,8.5-8.2.22-5.2-3.95-7.58-10.27-11.18-3.25-1.85-7.07-4.04-11.35-7.11v3.57c3.78,2.59,7.15,4.52,9.91,6.09Z"/>
      <path class="cls-1" d="m1.39,40.4c1.08,1.15,2.13,2.28,3.21,3.39,3.05,3.14,6.09,5.97,9.02,8.38,8.07,6.65,15.25,10.58,20.49,13.45,7.11,3.89,10.24,5.76,10.15,9.48-.07,2.54-2.94,4.05-7.64,6.29-5.84,2.79-13.12,6.27-16.04,14.77-1.35,3.92-1.65,8.24-.92,13.21.6,4.08,1.84,8.18,3.04,12.15.32,1.05.63,2.1.94,3.14l1.05,3.56c.59,1.99,1.26,4.22,1.95,6.63.77,2.65,1.56,5.51,2.36,8.55,1.63,6.18,3.04,12.2,4.19,17.9,1.23,6.06,2.14,12.01,2.72,17.68,1.22,11.86.48,20.35-2.27,25.95-2.96,6.04-7.81,6.33-19.54,7.04-3.92.24-8.58.52-14.1,1.09v2.94c5.6-.59,10.32-.88,14.28-1.12,12.17-.74,18.28-1.11,21.99-8.67,3-6.11,3.83-15.12,2.55-27.54-.59-5.77-1.52-11.81-2.76-17.96-1.16-5.75-2.58-11.83-4.23-18.07-.81-3.06-1.61-5.94-2.38-8.62-.7-2.42-1.36-4.65-1.96-6.65l-1.05-3.54c-.31-1.06-.63-2.11-.95-3.17-1.17-3.86-2.37-7.86-2.94-11.73-.67-4.56-.42-8.32.79-11.83,2.52-7.34,8.91-10.39,14.54-13.08,4.72-2.25,9.18-4.39,9.3-8.85.15-5.66-4.55-8.23-11.67-12.12-5.42-2.97-12.17-6.66-20.03-13.14-2.85-2.35-5.81-5.1-8.79-8.16-1.06-1.09-2.1-2.21-3.17-3.35-1.12-1.2-2.28-2.44-3.53-3.72v4.23c.47.5.93.99,1.39,1.49Z"/>
      <path class="cls-1" d="m39.17,229.89c13.44-.72,20.19-1.09,24.2-9.41,3.25-6.75,4.01-16.74,2.34-30.54-.76-6.29-1.95-13.03-3.51-20.03-1.42-6.36-3.17-13.17-5.2-20.24-.99-3.43-1.96-6.67-2.89-9.67-.92-2.93-1.78-5.63-2.54-8l-2.14-6.63c-1.44-4.42-2.94-8.99-3.67-13.41-.86-5.1-.64-9.29.66-13.21,2.76-8.28,9.9-11.61,16.21-14.56,5.39-2.51,10.04-4.69,10.1-9.49.08-6.11-5.15-8.88-13.05-13.06-6.16-3.27-13.84-7.33-22.81-14.56-3.26-2.62-6.6-5.65-9.94-9-1.2-1.2-2.38-2.43-3.59-3.69-4.61-4.81-9.84-10.27-18.1-16.12-1.85-1.31-3.59-2.46-5.23-3.48v3.48c1.14.74,2.31,1.52,3.55,2.39,8.03,5.69,12.93,10.8,17.67,15.75,1.22,1.27,2.41,2.51,3.62,3.73,3.41,3.42,6.83,6.52,10.18,9.22,9.19,7.4,17.33,11.71,23.28,14.86,8.01,4.24,11.55,6.3,11.5,10.45-.04,2.83-3.22,4.46-8.41,6.88-6.5,3.04-14.59,6.82-17.75,16.28-1.44,4.33-1.69,9.11-.77,14.62.78,4.63,2.3,9.31,3.78,13.83l2.13,6.62c.76,2.37,1.62,5.05,2.53,7.98.93,2.98,1.89,6.19,2.88,9.6,2.01,7.02,3.75,13.77,5.16,20.07,1.55,6.91,2.71,13.55,3.47,19.75,1.6,13.23.92,22.69-2.07,28.92-3.26,6.77-8.67,7.06-21.72,7.76-8.71.47-20.63,1.11-36.97,4.1-.69.13-1.36.27-2.05.4v2.98c.86-.17,1.7-.35,2.57-.51,16.16-2.96,27.97-3.6,36.6-4.06Z"/>
      <path class="cls-1" d="m.5,3.49l1.8.86c4.9,2.33,11,5.23,19.07,10.83,8.93,6.22,14.4,11.81,19.69,17.21,1.36,1.39,2.69,2.74,4.04,4.07,3.76,3.7,7.58,7.08,11.34,10.05,10.31,8.15,19.42,12.85,26.08,16.28,8.92,4.6,12.86,6.83,12.85,11.41,0,3.12-3.5,4.87-9.19,7.48-7.16,3.28-16.07,7.36-19.45,17.79-1.55,4.76-1.75,10-.63,16.03.95,5.16,2.76,10.39,4.51,15.45l2.11,6.14c.97,2.84,2.09,6.14,3.29,9.78,1.09,3.3,2.23,6.87,3.39,10.65,2.4,7.84,4.46,15.33,6.13,22.25,1.87,7.73,3.28,15.07,4.2,21.81,1.97,14.4,1.34,25.13-1.87,31.89-3.57,7.54-9.56,7.83-24.04,8.53-9.63.47-22.83,1.12-40.94,4.33-8.23,1.49-15.72,3.23-22.85,5.31v3.04s.08-.03.13-.04c7.24-2.14,14.85-3.92,23.24-5.44,17.93-3.18,31.01-3.82,40.57-4.29,14.79-.72,22.22-1.09,26.53-10.2,3.5-7.39,4.2-18.36,2.12-33.54-.93-6.84-2.36-14.27-4.26-22.1-1.68-6.98-3.76-14.52-6.17-22.42-1.17-3.8-2.32-7.39-3.41-10.71-1.2-3.65-2.33-6.96-3.3-9.81l-2.11-6.16c-1.72-4.95-3.49-10.07-4.4-15.02-1.03-5.54-.86-10.31.54-14.6,2.99-9.21,10.91-12.84,17.89-16.03,5.84-2.68,10.89-4.99,10.9-10.13.01-6.56-5.74-9.53-14.43-14.01-6.55-3.38-15.51-8-25.6-15.98-3.67-2.9-7.41-6.21-11.1-9.84-1.34-1.32-2.65-2.66-4-4.03-5.13-5.24-10.95-11.18-20.1-17.56C14.77,7.05,8.55,4.09,3.55,1.71l-1.79-.85C1.16.57.57.28,0,0v3.25c.17.08.32.16.5.24Z"/>
    </g>
  </g>
</svg>