<?xml version="1.0" encoding="UTF-8"?>
<svg id="Layer_2" data-name="Layer 2" xmlns="http://www.w3.org/2000/svg" viewBox="0 0 376.12 418.04">
  <defs>
    <style>
      .cls-1 {
        fill: #fff;
      }
    </style>
  </defs>
  <g id="Layer_1-2" data-name="Layer 1">
    <g>
      <path class="cls-1" d="m0,198.88c23.37,4.51,39.68,5.26,47.68,23.35,7,15.83.5,28.76,11.14,44.35,7.68,11.25,14.4,9.39,29.74,18.24,31.61,18.24,32,42.77,49.87,43.1,19.03.35,22.4-24.23,40.85-24.47,28.11-.37,38.57,59,58.96,56.53,23.12-2.8,20.54-80.4,51.76-94.43,24.88-11.18,37.97,32.96,86.11,40.51V0H0v198.88Z"/>
      <path class="cls-1" d="m49.24,417.13l-20.46-27.5-20.46,27.5H0l24.58-32.62L.91,353.18h8.5l19.64,26.13,19.46-26.13h8.4l-23.66,31.24,24.58,32.71h-8.59Z"/>
      <g>
        <path class="cls-1" d="m94.47,397.94h-10.69v19.19h-14.07v-63.96h26.13c15.26,0,24.49,9.05,24.49,22.11v.18c0,14.8-11.51,22.47-25.86,22.47Zm11.6-22.38c0-6.3-4.39-9.69-11.42-9.69h-10.87v19.56h11.15c7.04,0,11.15-4.2,11.15-9.69v-.18Z"/>
        <path class="cls-1" d="m130.73,417.13v-63.96h48.24v12.52h-34.26v12.98h30.15v12.52h-30.15v13.43h34.72v12.52h-48.7Z"/>
        <path class="cls-1" d="m305.41,417.13l-19.83-27.23-7.4,7.67v19.56h-14.07v-63.96h14.07v27.96l25.95-27.96h17l-26.04,27.14,27.23,36.82h-16.9Z"/>
        <path class="cls-1" d="m352.64,418.04c-9.69,0-19.46-3.38-27.14-10.23l8.31-9.96c5.75,4.75,11.79,7.77,19.1,7.77,5.75,0,9.23-2.28,9.23-6.03v-.18c0-3.56-2.19-5.39-12.88-8.13-12.88-3.29-21.2-6.85-21.2-19.56v-.18c0-11.6,9.32-19.28,22.39-19.28,9.32,0,17.27,2.92,23.76,8.13l-7.31,10.6c-5.67-3.93-11.24-6.3-16.63-6.3s-8.23,2.47-8.23,5.57v.18c0,4.2,2.74,5.58,13.8,8.41,12.97,3.38,20.28,8.04,20.28,19.19v.18c0,12.7-9.68,19.83-23.48,19.83Z"/>
        <path class="cls-1" d="m232.37,365.7c-4.78-1.99-9.02-6.88-13.14-12.99h-5.36l-27.41,64.42h14.35l5.85-14.35h27.05l5.85,14.35h14.71l-21.89-51.43Zm-20.69,24.66l8.5-20.74,8.5,20.74h-17Z"/>
      </g>
    </g>
  </g>
</svg>