<?xml version="1.0" encoding="UTF-8"?>
<svg id="Layer_2" data-name="Layer 2" xmlns="http://www.w3.org/2000/svg" viewBox="0 0 389.8 68.18">
  <defs>
    <style>
      .cls-1 {
        fill: #132441;
      }

      .cls-2 {
        fill: #132441;
      }
    </style>
  </defs>
  <g id="Layer_1-2" data-name="Layer 1">
    <g>
      <path class="cls-1" d="m51.03,67.23l-21.21-28.5-21.21,28.5H0l25.47-33.8L.95.96h8.81l20.36,27.08L50.28.96h8.71l-24.52,32.38,25.47,33.9h-8.9Z"/>
      <path class="cls-2" d="m97.9,47.34h-11.08v19.89h-14.58V.95h27.08c15.81,0,25.38,9.37,25.38,22.92v.19c0,15.34-11.93,23.29-26.8,23.29Zm12.03-23.2c0-6.53-4.54-10.04-11.84-10.04h-11.27v20.27h11.55c7.29,0,11.55-4.36,11.55-10.04v-.19Z"/>
      <path class="cls-2" d="m135.49,67.23V.95h50v12.97h-35.51v13.45h31.25v12.97h-31.25v13.92h35.98v12.97h-50.47Z"/>
      <path class="cls-2" d="m316.52,67.23l-20.55-28.22-7.67,7.95v20.27h-14.58V.95h14.58v28.98L315.19.95h17.61l-26.99,28.12,28.22,38.16h-17.52Z"/>
      <path class="cls-2" d="m365.47,68.18c-10.04,0-20.17-3.5-28.12-10.61l8.62-10.32c5.96,4.92,12.21,8.05,19.79,8.05,5.96,0,9.56-2.37,9.56-6.25v-.19c0-3.69-2.27-5.59-13.35-8.43-13.35-3.41-21.97-7.1-21.97-20.27v-.19c0-12.02,9.66-19.98,23.2-19.98,9.66,0,17.9,3.03,24.62,8.43l-7.58,10.98c-5.87-4.07-11.65-6.53-17.23-6.53s-8.52,2.56-8.52,5.77v.19c0,4.36,2.84,5.78,14.3,8.71,13.45,3.5,21.02,8.33,21.02,19.88v.19c0,13.16-10.04,20.55-24.33,20.55Z"/>
      <path class="cls-2" d="m240.82,13.93c-4.95-2.06-9.35-7.13-13.62-13.46h-5.56l-28.41,66.76h14.87l6.06-14.87h28.03l6.06,14.87h15.25l-22.68-53.3Zm-21.45,25.56l8.81-21.5,8.81,21.5h-17.61Z"/>
    </g>
  </g>
</svg>