<?xml version="1.0" encoding="UTF-8"?>
<svg id="Layer_2" data-name="Layer 2" xmlns="http://www.w3.org/2000/svg" viewBox="0 0 392.73 434.71">
  <defs>
    <style>
      .cls-1 {
        fill: none;
      }

      .cls-2 {
        fill: #000;
      }
    </style>
  </defs>
  <g id="Layer_1-2" data-name="Layer 1">
    <g>
      <path class="cls-2" d="m52.49,433.76l-21.21-28.5-21.21,28.5H1.46l25.47-33.8-24.52-32.47h8.81l20.36,27.08,20.17-27.08h8.71l-24.52,32.38,25.47,33.9h-8.9Z"/>
      <path class="cls-2" d="m99.36,413.88h-11.08v19.89h-14.58v-66.29h27.08c15.81,0,25.38,9.37,25.38,22.92v.19c0,15.34-11.93,23.29-26.8,23.29Zm12.03-23.2c0-6.53-4.54-10.04-11.84-10.04h-11.27v20.27h11.55c7.29,0,11.55-4.36,11.55-10.04v-.19Z"/>
      <path class="cls-2" d="m136.95,433.76v-66.29h50v12.97h-35.51v13.45h31.25v12.97h-31.25v13.92h35.98v12.97h-50.47Z"/>
      <path class="cls-2" d="m317.98,433.76l-20.55-28.22-7.67,7.95v20.27h-14.58v-66.29h14.58v28.98l26.89-28.98h17.61l-26.99,28.12,28.22,38.16h-17.52Z"/>
      <path class="cls-2" d="m366.93,434.71c-10.04,0-20.17-3.5-28.12-10.61l8.62-10.32c5.96,4.92,12.21,8.05,19.79,8.05,5.96,0,9.56-2.37,9.56-6.25v-.19c0-3.69-2.27-5.59-13.35-8.43-13.35-3.41-21.97-7.1-21.97-20.27v-.19c0-12.02,9.66-19.98,23.2-19.98,9.66,0,17.9,3.03,24.62,8.43l-7.58,10.98c-5.87-4.07-11.65-6.53-17.23-6.53s-8.52,2.56-8.52,5.77v.19c0,4.36,2.84,5.78,14.3,8.71,13.45,3.5,21.02,8.33,21.02,19.88v.19c0,13.16-10.04,20.55-24.33,20.55Z"/>
      <polygon class="cls-1" points="220.84 406.02 238.45 406.02 229.64 384.52 220.84 406.02"/>
      <path d="m242.29,380.46c-4.95-2.06-9.35-7.13-13.62-13.46h-5.56l-28.41,66.76h14.87l6.06-14.87h28.03l6.06,14.87h15.25l-22.68-53.3Zm-21.45,25.56l8.81-21.5,8.81,21.5h-17.61Z"/>
      <g>
        <path class="cls-2" d="m174.4,49.85c-1.38.36-3.27.84-6.44,2.35-2.16,1.02-4.18,1.53-6.17,1.56h-.79c-.42,0-.84,0-1.25,0-.91.02-1.81-.17-2.79-.39l-.42-.09c-.55-.12-1.07-.33-1.6-.54-.91-.36-1.94-.76-3.1-.81l-.56-.04c-.63-.04-1.35-.1-2.1.03-2.94.51-5.44,2.07-7.44,4.63-1.28,1.64-2.21,3.35-2.86,5.22-.66,1.89-1.35,4.43-.91,7.31.43,2.81,1.49,5.22,3.14,7.16.52.61,1.1,1.14,1.68,1.67.41.37.82.74,1.19,1.14.92.99,1.74,1.99,2.44,2.97.92,1.28,1.64,2.69,2.14,4.18.47,1.42.86,2.61,1.1,3.84.53,2.68,1.08,5.31,2.01,7.87.96,2.65,2.19,5.12,3.63,7.35,1.62,2.5,3.02,4.29,4.5,5.79.07.07,1.57,1.65,3.25,3.01,5.03,4.06,13.32,5.79,20.12,5.79,3.51,0,6.63-.46,8.7-1.31,1.79-.73,3.44-1.69,3.52-1.74,1.19-.72,2.41-1.57,3.72-2.6.93-.73,1.88-1.59,2.91-2.64.79-.8,1.57-1.7,2.47-2.83.7-.88,1.36-1.82,1.97-2.79.42-.67.81-1.37,1.2-2.07l.56-1c1.04-1.8,2.27-3.35,3.65-4.63,1.26-1.17,2.48-2.03,3.74-2.64.86-.42,1.88-.89,2.92-1.17.79-.21,1.6-.31,2.41-.42l.97-.13c.24-.04.49-.06.73-.08.34-.03.69-.07,1.03-.12,1.85-.3,3.62-.94,5.25-1.91,2.61-1.54,4.75-3.72,6.36-6.47,1.01-1.72,1.77-3.56,2.26-5.47.45-1.77.69-3.6.7-5.44,0-.76-.08-1.52-.17-2.27l-.05-.47c-.3-2.65-1.83-6.33-2.42-7.41-2.65-4.89-12.74-5.71-22.5-6.5-6.11-.5-12.43-1.01-14.49-2.55-.29-.22-1.37-1.03-2.87-1.94-.43-.25-2.68-1.57-5.14-2.48-8.15-3.02-15.42-1.14-15.73-1.06l-.5.13Zm1.25,2.69c.07-.02,6.71-1.71,13.96.98,2.21.82,4.27,2.02,4.66,2.25,1.36.82,2.34,1.56,2.66,1.8,2.7,2.02,8.84,2.52,15.96,3.1,8.14.66,18.27,1.48,20.17,4.98.48.88,1.84,4.16,2.08,6.35l.06.49c.08.63.16,1.27.15,1.91,0,1.61-.21,3.2-.6,4.73-.43,1.67-1.07,3.21-1.95,4.72-1.36,2.32-3.15,4.14-5.33,5.43-1.32.78-2.74,1.3-4.24,1.54-.27.05-.55.07-.83.1-.29.03-.59.06-.88.1l-.92.12c-.94.12-1.88.25-2.8.49-1.29.35-2.52.91-3.45,1.37-1.51.74-2.96,1.76-4.44,3.12-1.6,1.47-3.02,3.26-4.2,5.32l-.58,1.03c-.37.65-.73,1.3-1.12,1.93-.56.88-1.16,1.73-1.79,2.54-.72.91-1.47,1.79-2.26,2.6-.94.96-1.8,1.74-2.63,2.39-1.22.96-2.34,1.74-3.41,2.39-.01,0-1.54.9-3.13,1.55-4.87,1.98-18.82,1.65-25.89-4.06-1.53-1.23-2.95-2.73-2.99-2.77-1.36-1.37-2.64-3.02-4.15-5.35-1.33-2.04-2.45-4.32-3.34-6.76-.86-2.36-1.38-4.86-1.88-7.43-.3-1.52-.8-3.01-1.2-4.2-.59-1.77-1.45-3.43-2.54-4.95-.77-1.08-1.67-2.17-2.67-3.25-.43-.47-.9-.9-1.37-1.32-.49-.45-.98-.89-1.42-1.4-1.3-1.53-2.13-3.45-2.48-5.72-.28-1.77-.04-3.54.78-5.9.54-1.56,1.33-3,2.41-4.38,1.56-2,3.4-3.16,5.64-3.55.16-.03.34-.04.53-.04.27,0,.56.02.86.04l.64.04c.68.03,1.4.31,2.16.61.67.27,1.35.52,2.05.68l.41.09c1.11.25,2.25.5,3.52.45.37-.01.74-.01,1.12,0h.86c2.42-.03,4.84-.64,7.38-1.84,2.93-1.39,4.59-1.82,5.92-2.16l.52-.14Z"/>
        <path class="cls-2" d="m178.28,36.68c-2.59.11-4.69-.06-6.38-.2-1.78-.14-3.19-.25-4.44,0-1.2.25-3.41.71-7.37,2.52-2.3,1.05-4.44,1.64-6.57,1.8l-.8.05c-.44.02-.87.05-1.31.09-.91.09-1.86-.02-2.85-.14l-.51-.06c-.55-.06-1.09-.21-1.62-.35-.94-.25-2-.52-3.17-.46l-.53.02c-.64.02-1.37.04-2.12.24-3.27.86-5.82,2.71-7.37,5.34-.69,1.17-.87,2.14-1.02,3-.09.48-.17.98-.4,1.54-.58,1.45-1.67,2.5-3.04,3.73-.55.49-1.14.97-1.74,1.44-2.34,1.88-5,4-5.76,7.58-.23,1.07-.83,2.95-1.82,5.01-.59,1.23-.75,2.18-.89,3.02-.11.68-.21,1.26-.54,2.01-1.13,2.54-1.15,4.37-.09,6.31.89,1.63,2.27,3.18,3.61,4.68,1.55,1.73,2.88,3.5,4.08,5.41,1.06,1.7,1.93,3.14,2.69,4.69l.38.77c1.17,2.37,2.38,4.83,3.9,7.33l.24.41c.18.31.36.62.56.91,1,1.42,1.78,2.59,2.46,3.6,1.39,2.08,2.39,3.58,4,5.28,2.24,2.36,4.74,4.48,7.64,6.49l.5.22c.33.1,1.39.82,2.16,1.34.74.5,1.55,1.05,2.38,1.55l1.35.81c1.56.93,3.04,1.8,4.4,2.94.52.44,1.01.86,1.48,1.27,1.87,1.62,3.47,3.01,6.06,4.4,1.76.94,3.45,1.28,5.24,1.63.84.17,1.71.34,2.66.59,1.1.29,2.12.57,3.07.84,3.71,1.03,6.44,1.78,9.01,1.78.73,0,1.45-.06,2.18-.2,1.6-.3,2.7-1.15,3.67-1.91.69-.54,1.29-1.01,1.93-1.14.55-.12.8-.11.81-.16l.53.27c.68.19,1.33.56,2.03.96,1.37.78,3.08,1.75,5.13,1.01.65-.24,1.25-.66,1.75-1.22,1.19-1.26,2.09-3.01,3.05-4.88.48-.94.97-1.9,1.51-2.79.82-1.36,1.52-2.19,2.26-2.68.73-.49,1.26-.46,2.46-.32l.31.04c1.53.17,3.42.39,5.88-.12.18-.04.36-.09.75-.19,1.69-.45,2.77-1.24,4.01-2.15.61-.45,1.3-.95,2.19-1.5l.66-.42c.69-.45,1.41-.91,2.25-1.27,1.59-.67,2.91-1.14,4.03-1.54,2.67-.96,4.44-1.59,5.92-3.51,1.07-1.39,1.99-2.86,2.88-4.28.36-.57.71-1.13,1.06-1.68.66-1.02,1.45-2.1,2.36-3.22.54-.67,1.11-1.24,1.66-1.8.29-.29.58-.58.85-.87l.48-.48c.27-.27.54-.53.79-.81.42-.48.82-.98,1.2-1.47l.22-.28c.6-.75,1.08-1.56,1.59-2.43l.42-.7c.51-.84,1.07-1.72,1.74-2.65.78-1.1,1.87-1.98,2.93-2.83,1.47-1.19,3-2.41,3.65-4.25.86-2.39.03-4.08-1.01-6.22-.33-.67-.69-1.42-1.07-2.31-.22-.52-.39-1.09-.57-1.69l-.44-1.41c-.45-1.46-.95-3.12-2.03-4.83-.6-.96-1.15-1.77-1.64-2.5l-.95-1.4c-1.13-1.49-2.07-3.26-2.98-4.97-1.17-2.2-2.27-4.28-3.74-5.73-3.09-3.06-7.26-3.75-11.29-4.42-2.76-.45-5.63-.93-8.06-2.17-1-.51-1.74-1.09-2.52-1.7-1-.78-2.03-1.6-3.6-2.26-1.79-.76-3.69-.74-5.52-.73-1.36.01-2.76.02-4.15-.28-4-.87-6.98-2.96-9.37-4.64-1.57-1.1-2.92-2.04-4.28-2.5-.8-.26-2.3-.48-4.13-.58l-.78-.05-.31.41c-.36.06-1.13.08-1.71.08-.92.02-1.98.04-3.08.17-1.45.18-2.89.53-4.28.87-1.78.44-3.47.86-5.19.93Zm9.81,1.1c.99-.12,1.95-.13,2.78-.15,1.3-.02,2.34-.04,3.1-.42,1.65.12,2.57.31,2.87.41.96.32,2.15,1.15,3.53,2.12,2.61,1.83,5.85,4.1,10.43,5.1,1.7.37,3.34.35,4.79.35,1.68-.01,3.13-.02,4.36.5,1.21.51,2.01,1.14,2.94,1.87.86.67,1.74,1.37,3,2.01,2.85,1.45,5.93,1.96,8.92,2.45,3.74.62,7.28,1.2,9.71,3.61,1.15,1.14,2.15,3.03,3.21,5.02.96,1.81,1.96,3.69,3.39,5.59l.7,1.04c.48.71,1,1.49,1.59,2.43.87,1.38,1.29,2.77,1.7,4.12l.44,1.41c.21.7.42,1.36.68,1.97.4.94.79,1.74,1.13,2.45,1.01,2.07,1.31,2.78.89,3.96-.38,1.06-1.47,1.94-2.74,2.96-1.15.93-2.46,1.98-3.47,3.4-.71,1-1.31,1.93-1.86,2.83l-.43.73c-.45.76-.86,1.47-1.36,2.09l-.22.28c-.36.45-.73.92-1.12,1.37-.2.23-.41.43-.62.64-.19.18-.37.36-.56.56-.26.28-.53.55-.8.82-.61.62-1.25,1.26-1.85,2.02-.97,1.2-1.82,2.36-2.53,3.46-.37.56-.73,1.14-1.09,1.72-.85,1.36-1.74,2.77-2.72,4.05-.92,1.19-2.01,1.62-4.6,2.54-1.16.41-2.52.9-4.17,1.6-1.09.46-1.95,1.02-2.71,1.51l-.61.39c-.96.59-1.71,1.14-2.37,1.63-1.13.83-1.87,1.37-3.26,1.74l-.35.09c-2.01.41-3.51.24-4.97.08l-.37-.04c-1.27-.14-2.71-.3-4.36.81-1.42.96-2.42,2.42-3.13,3.6-.57.95-1.09,1.96-1.6,2.96-.86,1.67-1.67,3.24-2.6,4.23-.21.23-.41.39-.61.46-.75.27-1.46-.11-2.67-.81-.71-.41-1.51-.86-2.42-1.16-.91-.57-2.07-.43-3-.23-1.29.28-2.26,1.03-3.11,1.69-.81.63-1.51,1.18-2.41,1.34-2.6.48-5.34-.27-9.88-1.53-.96-.26-1.99-.55-3.1-.84-1.01-.27-1.94-.45-2.84-.63-1.64-.33-3.06-.61-4.44-1.34-2.3-1.23-3.72-2.46-5.53-4.03-.48-.42-.98-.85-1.51-1.3-1.55-1.3-3.2-2.27-4.79-3.22l-1.32-.79c-.79-.48-1.57-1.01-2.27-1.48-1.34-.9-2.15-1.44-2.83-1.68-2.66-1.85-4.94-3.81-6.99-5.96-1.44-1.52-2.34-2.86-3.69-4.89-.69-1.03-1.48-2.22-2.5-3.66-.15-.21-.28-.45-.41-.68l-.28-.47c-1.46-2.39-2.64-4.79-3.78-7.11l-.38-.78c-.87-1.75-1.88-3.41-2.84-4.94-1.27-2.02-2.74-3.97-4.37-5.81-1.51-1.69-2.55-2.89-3.23-4.14-.53-.97-.65-1.81.2-3.72.48-1.09.62-1.95.75-2.71.12-.74.23-1.37.64-2.23.94-1.95,1.7-4.07,2.04-5.67.54-2.56,2.58-4.19,4.73-5.91.64-.51,1.27-1.02,1.86-1.54,1.6-1.43,3-2.78,3.81-4.82.32-.8.44-1.49.55-2.1.14-.74.24-1.32.67-2.05,1.17-1.98,3.05-3.33,5.6-3.99.42-.11.93-.13,1.46-.14l.6-.02c.72-.03,1.47.16,2.27.37.67.18,1.34.35,2.04.43l.5.06c1.1.14,2.24.27,3.48.15.39-.04.79-.06,1.18-.08l.86-.05c2.48-.18,4.95-.85,7.57-2.05,3.37-1.55,5.24-2.01,6.74-2.32.84-.18,2.06-.08,3.61.05,1.77.14,3.97.32,6.73.2,2.01-.09,3.92-.55,5.76-1.01,1.36-.34,2.65-.65,3.93-.81Z"/>
        <path class="cls-2" d="m182.06,20.9c-2.67,1.57-5.18,3.06-8.05,3.35-3,.31-5.28-.15-7.47-.59-2.19-.44-4.26-.86-6.59-.38-1.27.26-3.63.74-7.7,2.55-2.44,1.08-4.71,1.75-6.95,2.03l-.77.09c-.47.05-.94.1-1.4.18-.96.14-1.92.12-2.93.09h-.59c-.56-.02-1.1-.11-1.64-.18-.97-.14-2.06-.29-3.24-.11l-.51.07c-.65.09-1.38.18-2.12.44-3.36,1.18-5.79,3.18-7.24,5.94-.94,1.79-.98,3.19-1.01,4.42-.02.84-.04,1.56-.34,2.42-.75,2.17-2.45,3.52-4.95,5.01-1.09.65-2.29,1.23-3.53,1.82-3.93,1.9-8.38,4.04-10.32,8.75-.46,1.12-2.06,3.9-4.56,7-1.18,1.46-1.78,2.48-2.36,3.47-.58.99-1.14,1.93-2.33,3.34-2.96,3.5-4.37,5.92-3.38,8.7.75,2.1,2.26,3.88,4.62,6.24,1.62,1.62,3.76,3.83,6.02,6.56,1.32,1.59,2.85,3.46,4.31,5.52l1.07,1.51c1.79,2.53,3.63,5.15,5.83,7.9l.41.53c.26.34.51.67.78.98,2.22,2.49,3.63,4.23,4.75,5.62,1.59,1.96,2.64,3.26,4.55,4.91,3.37,2.9,6.99,5.84,10.95,7.27,1.34.48,3.76,1.71,6.09,2.9l.58.3c2.65,1.34,5.15,2.61,7.13,4.85,1.02,1.15,1.8,2.24,2.56,3.3,1.4,1.96,2.73,3.82,5.3,5.76,2.04,1.54,4.04,2.06,6.16,2.6,1.16.3,2.37.6,3.74,1.11,3.15,1.15,5.55,2.3,7.67,3.32,3.7,1.78,6.35,3.05,9.79,2.68,2.44-.27,4-1.67,5.38-2.91,1.1-.99,2.05-1.84,3.27-2,.9-.13,1.59.02,2.21.46.97.69,1.94,1.64,2.88,2.56,1.89,1.87,4,3.95,6.55,3.95.4,0,.81-.05,1.24-.16.99-.26,1.88-.87,2.63-1.79,1.55-1.81,2.67-4.55,3.86-7.45.71-1.74,1.45-3.54,2.29-5.13,1.19-2.26,2.34-3.66,3.61-4.39,1.39-.79,2.41-.49,4.42.36l.81.35c2.35,1.02,5.28,2.29,9.36,2.3.36,0,.73-.02,1.24-.06,2.9-.19,4.59-1.15,6.73-2.36,1.04-.59,2.24-1.27,3.84-2.01l.65-.3c1.3-.61,2.76-1.3,4.53-1.83,3.31-.99,5.9-1.54,7.98-1.98,4.13-.87,6.62-1.4,8.47-4.22,1.8-2.75,2.89-6.06,3.85-9.23.29-.94.59-1.89.88-2.81.29-.89.56-1.76.82-2.59.29-.93.58-1.8.86-2.63.27-.79.52-1.55.75-2.29l.24-.75c.18-.55.35-1.07.49-1.61l.34-1.32c.14-.56.27-1.08.41-1.57.22-.77.38-1.57.55-2.4.15-.75.31-1.53.52-2.32.38-1.39.88-2.63,1.53-3.82,1.06-1.92,2.85-3.13,4.58-4.31,2-1.36,3.89-2.64,4.44-4.88.7-2.89-.89-4.61-2.9-6.79-1-1.08-2.24-2.43-3.54-4.24-.65-.91-1.28-2.03-1.88-3.12l-.68-1.26c-.98-1.85-2.08-3.94-4.06-6.1-1.45-1.58-2.65-2.74-3.67-3.72l-.78-.76c-.15-.15-.3-.29-.45-.41-2.45-2.19-4.05-4.85-5.6-7.42-1.58-2.62-3.07-5.09-5.35-7.05-4.55-3.9-10.01-4.4-14.83-4.85-3.98-.37-7.74-.72-10.41-2.9-1.16-.94-1.76-2.01-2.4-3.14-.77-1.37-1.65-2.93-3.53-4.17-2.18-1.44-4.65-1.3-7.04-1.17-1.84.1-3.74.21-5.69-.34-4.66-1.31-7.75-4.5-10.47-7.31-2.13-2.2-3.97-4.11-6.19-4.6-1.28-.3-3,0-5.55.91l-.5.18-.27.45c-.35.59-1.77,1.22-3.15,1.82-.82.36-1.71.75-2.6,1.21-1,.51-1.99,1.1-2.99,1.69Zm6.76-.22c1.73-.76,3.25-1.42,4.16-2.53,2.1-.71,3.06-.75,3.5-.66,1.36.31,2.92,1.92,4.72,3.78,2.83,2.93,6.36,6.58,11.78,8.09,2.41.68,4.66.55,6.64.44,2.18-.12,3.89-.22,5.27.69,1.3.85,1.9,1.93,2.6,3.17.71,1.25,1.51,2.68,3.09,3.97,3.36,2.74,7.74,3.14,11.98,3.54,4.6.43,9.36.87,13.2,4.16,1.93,1.65,3.3,3.93,4.75,6.34,1.66,2.76,3.38,5.61,6.17,8.1l1.14,1.09c.98.95,2.14,2.06,3.54,3.59,1.73,1.88,2.69,3.72,3.63,5.49.24.45.47.88.7,1.31.64,1.16,1.31,2.36,2.06,3.41,1.41,1.96,2.72,3.38,3.77,4.52,1.93,2.09,2.53,2.82,2.21,4.13-.28,1.15-1.65,2.07-3.23,3.15-1.92,1.3-4.1,2.78-5.5,5.31-.77,1.39-1.35,2.85-1.79,4.46-.23.86-.41,1.7-.57,2.51-.15.75-.3,1.48-.49,2.18-.15.51-.29,1.07-.44,1.66l-.33,1.28c-.13.49-.28.96-.44,1.46l-.25.78c-.23.73-.47,1.46-.73,2.22-.29.86-.59,1.75-.88,2.72-.25.82-.52,1.68-.8,2.55-.3.94-.61,1.89-.9,2.86-.9,2.96-1.9,6.05-3.49,8.47-1.14,1.73-2.5,2.09-6.64,2.97-2.13.45-4.79,1.01-8.22,2.04-1.98.59-3.55,1.33-4.93,1.98l-.63.3c-1.68.78-2.96,1.5-4.05,2.12-2.03,1.15-3.25,1.84-5.61,2-.31.02-.61.04-.91.04-3.47-.01-5.99-1.1-8.2-2.06l-.84-.36c-1.89-.8-4.24-1.79-7.01-.2-1.78,1.02-3.29,2.79-4.74,5.57-.9,1.71-1.67,3.58-2.4,5.38-1.1,2.68-2.13,5.2-3.4,6.68-.38.46-.74.74-1.13.84-1.39.36-2.82-.9-4.99-3.04-1.02-1.01-2.07-2.05-3.24-2.87-.98-.69-2.07-1.04-3.31-1.04-.31,0-.64.02-.97.07-2.12.28-3.57,1.58-4.84,2.72-1.21,1.08-2.25,2.02-3.76,2.18-2.58.28-4.82-.78-8.2-2.41-2.07-.99-4.64-2.23-7.93-3.43-1.51-.55-2.84-.89-4.02-1.19-1.99-.51-3.56-.91-5.12-2.1-2.21-1.68-3.36-3.28-4.69-5.13-.8-1.12-1.62-2.27-2.75-3.54-2.34-2.65-5.21-4.1-7.99-5.51l-.58-.29c-2.53-1.29-4.91-2.5-6.42-3.04-3.49-1.26-6.87-4.02-10.03-6.74-1.71-1.47-2.64-2.62-4.18-4.53-1.14-1.41-2.58-3.19-4.84-5.72-.22-.25-.42-.52-.63-.79l-.46-.6c-2.15-2.68-3.97-5.26-5.73-7.76l-1.07-1.51c-1.52-2.14-3.09-4.06-4.45-5.7-2.34-2.82-4.55-5.09-6.2-6.75-2.02-2.02-3.38-3.59-3.94-5.16-.4-1.12-.06-2.38,2.86-5.83,1.35-1.6,1.99-2.69,2.61-3.75.55-.93,1.07-1.82,2.11-3.11,2.53-3.13,4.36-6.19,4.99-7.72,1.52-3.68,5.27-5.49,8.89-7.24,1.31-.63,2.6-1.26,3.75-1.94,2.41-1.43,5.07-3.24,6.22-6.57.44-1.28.47-2.35.5-3.29.03-1.09.06-1.96.68-3.15,1.09-2.09,2.98-3.61,5.62-4.54.45-.16.98-.23,1.53-.3l.57-.08c.76-.12,1.51,0,2.39.12.66.09,1.32.18,2,.2h.57c1.1.04,2.24.07,3.45-.11.43-.07.85-.11,1.28-.16l.82-.09c2.53-.32,5.07-1.06,7.78-2.26,3.79-1.68,5.94-2.12,7.1-2.36,1.77-.36,3.46-.01,5.43.38,2.3.46,4.91.99,8.34.64,3.5-.36,6.42-2.08,9.23-3.74.95-.56,1.89-1.12,2.84-1.61.84-.43,1.67-.79,2.43-1.13Z"/>
        <path class="cls-2" d="m0,0v208.78l1.18.23c2.82.54,5.55,1.04,8.17,1.51,19.98,3.61,33.17,5.99,40.19,21.85,3.09,6.98,3.57,13.54,4.03,19.89.61,8.32,1.24,16.93,7.64,26.3,5.33,7.81,10.34,9.85,17.27,12.68,3.92,1.6,8.37,3.41,14.02,6.67,16.22,9.36,24.34,20.28,30.86,29.06,6.49,8.73,11.61,15.62,21.53,15.81,10.6.12,16.81-6.62,22.76-13.21,5.58-6.19,10.85-12.03,19.63-12.15.08,0,.16,0,.24,0,14.54,0,24.75,17.16,33.77,32.3,8.06,13.54,15.69,26.36,25.79,26.36.48,0,.97-.03,1.46-.09,12.35-1.5,17.73-20.41,23.96-42.31,6.44-22.65,13.75-48.32,30.11-55.68,11.94-5.38,21.07,2.43,33.71,13.21,12.98,11.08,29.14,24.87,54.71,28.89l1.69.26V0H0Zm201.87,2.92c3.1,4.03,6.97,8.99,13.33,11,3.1.98,5.93.74,8.43.52,2.64-.23,4.72-.41,6.31.91,1.48,1.23,1.94,2.77,2.48,4.55.55,1.83,1.18,3.91,2.98,5.83,3.62,3.87,8.84,4.13,14.37,4.4,5.83.28,11.86.58,17.22,4.87,2.74,2.2,4.53,5,6.43,7.97,2.29,3.58,4.66,7.29,8.97,10.46l1.37,1.05c1.46,1.12,3.27,2.52,5.5,4.58,2.61,2.42,4.14,4.72,5.61,6.95.38.58.76,1.14,1.14,1.69.94,1.36,2.07,2.92,3.23,4.24,2.5,2.81,4.73,4.67,6.53,6.16,2.81,2.33,3.77,3.22,3.49,4.84-.23,1.33-1.93,2.36-3.89,3.56-2.52,1.53-5.65,3.43-7.34,7-.86,1.82-1.41,3.78-1.66,6-.16,1.41-.17,2.78-.18,4.1,0,.82-.01,1.63-.06,2.42-.04.75-.07,1.6-.09,2.52l-.05,1.64c-.03.9-.09,1.81-.16,2.79l-.03.5c-.12,1.88-.32,3.86-.53,5.98l-.11,1.09c-.22,2.32-.58,4.78-.95,7.41-.54,3.78-1.35,8.08-3.27,11.29-1.4,2.35-3.22,2.73-8.74,3.56-3.15.47-7.07,1.06-12.32,2.39-3.04.77-5.51,1.75-7.49,2.55l-.32.13c-2.41.96-4.25,1.88-5.73,2.62-2.91,1.45-4.6,2.34-8,2.28-.52,0-1.03-.02-1.52-.06-5.05-.44-8.57-2.47-11.68-4.27l-1.2-.69c-2.49-1.4-5.6-3.15-9.38-1.15-2.43,1.29-4.44,3.66-6.29,7.46-1.22,2.47-2.21,5.19-3.17,7.82-1.35,3.68-2.62,7.15-4.23,9.13-.57.72-1.14,1.14-1.74,1.27-2.13.46-4.3-2.18-6.64-4.97-1.49-1.79-3.03-3.63-4.8-5-1.41-1.1-2.95-1.64-4.68-1.64-.27,0-.54.01-.82.04-2.89.27-4.78,2.09-6.45,3.69-1.63,1.56-3.03,2.91-5.21,3.07-2.97.22-5.19-1.24-8.56-3.43-2.66-1.73-5.97-3.88-10.73-5.9-1.94-.82-3.59-1.31-5.04-1.73-2.42-.71-4.17-1.22-6-2.9-2.45-2.25-3.49-4.31-4.69-6.71-.84-1.67-1.71-3.41-3.12-5.32-2.66-3.59-6.13-5.33-9.76-6.94-2.06-.91-5.94-2.58-8.85-3.52-3.83-1.22-7.88-3.53-13.13-7.49-2.07-1.56-3.08-2.67-4.9-4.67-1.47-1.62-3.48-3.83-6.96-7.26-.29-.29-.57-.6-.85-.92l-.64-.71c-2.76-2.94-5.15-5.7-7.46-8.37l-1.98-2.28c-2.13-2.44-4.24-4.61-6.05-6.46-2.65-2.7-5.05-4.94-7.17-6.92l-.87-.82c-2.56-2.39-4.24-4.28-4.73-6.28-.4-1.63.99-3.61,5.69-8.11,2.3-2.2,3.41-3.51,4.59-4.89.91-1.07,1.85-2.18,3.46-3.82,4.16-4.25,7.02-8.2,7.85-9.69,2.69-4.86,8.12-6.84,13.37-8.75,1.93-.7,3.74-1.36,5.43-2.16,3.61-1.71,7.15-3.89,8.52-8.18.55-1.72.48-3.13.43-4.38-.07-1.42-.12-2.66.71-4.37,1.08-2.24,2.93-3.91,5.65-5.12.53-.24,1.09-.36,1.64-.48l.5-.12c.81-.21,1.62-.18,2.56-.16.63.02,1.27.03,1.93-.02l.75-.05c1.06-.07,2.16-.14,3.32-.38.46-.1.92-.17,1.38-.25l.78-.13c2.56-.45,5.25-1.28,7.99-2.46,3.93-1.69,6.32-2.17,7.46-2.39,2.81-.56,5.01.05,7.56.77,2.65.74,5.65,1.57,9.6,1.02,4.91-.69,8.63-3.97,12.24-7.13.68-.6,1.35-1.19,2.03-1.76.75-.63,1.5-1.23,2.22-1.79.47-.37.93-.74,1.37-1.09h13.83Zm-18.51,0c-.26.21-.53.43-.8.65-.69.58-1.39,1.19-2.08,1.8-3.28,2.88-6.67,5.86-10.72,6.44-3.36.47-5.81-.21-8.41-.94-2.67-.74-5.42-1.51-8.92-.82-1.24.25-3.83.76-8.05,2.57-2.53,1.09-5,1.85-7.34,2.27l-.75.13c-.5.08-1,.17-1.5.27-.95.2-1.9.26-2.91.32l-.77.05c-.56.04-1.11.02-1.64.01-1.06-.03-2.14-.06-3.33.24l-.45.11c-.7.16-1.42.33-2.17.66-3.33,1.48-5.72,3.67-7.1,6.52-1.15,2.38-1.07,4.19-1,5.78.05,1.15.1,2.14-.29,3.36-.98,3.05-3.5,4.78-6.99,6.43-1.56.74-3.32,1.38-5.18,2.05-5.49,2-11.71,4.26-14.93,10.08-.63,1.14-3.27,4.86-7.38,9.07-1.67,1.71-2.65,2.86-3.6,3.97-1.13,1.33-2.19,2.58-4.38,4.68-4.48,4.3-7.36,7.38-6.5,10.91.65,2.7,2.62,4.96,5.57,7.72l.88.82c2.1,1.96,4.47,4.18,7.08,6.83,1.78,1.82,3.86,3.96,5.94,6.34l1.97,2.27c2.33,2.69,4.74,5.47,7.54,8.46l.59.65c.33.37.65.72.98,1.05,3.42,3.37,5.4,5.55,6.85,7.14,1.88,2.07,3.01,3.31,5.31,5.04,5.53,4.17,9.85,6.62,14,7.94,2.06.66,5.1,1.87,8.55,3.4,3.38,1.5,6.36,2.99,8.59,6.01,1.27,1.71,2.08,3.33,2.86,4.89,1.22,2.43,2.48,4.95,5.33,7.55,2.33,2.13,4.56,2.79,7.15,3.55,1.38.4,2.94.86,4.72,1.62,4.52,1.92,7.72,3.99,10.28,5.66,3.59,2.33,6.43,4.17,10.36,3.89,3.23-.23,5.25-2.17,7.02-3.88,1.52-1.46,2.83-2.72,4.7-2.89,1.3-.12,2.39.2,3.43,1,1.52,1.17,2.96,2.9,4.34,4.56,2.5,3,5.07,6.08,8.35,6.08.37,0,.76-.04,1.15-.12,1.28-.28,2.43-1.06,3.4-2.3,1.91-2.35,3.26-6.04,4.69-9.96.94-2.56,1.9-5.2,3.06-7.53,1.57-3.22,3.18-5.18,5.04-6.17,2.04-1.08,3.61-.56,6.58,1.11l1.18.67c3.2,1.85,7.18,4.15,12.88,4.65.56.05,1.14.06,1.73.07,4.09.04,6.27-1.05,9.35-2.59,1.5-.75,3.21-1.6,5.51-2.52l.32-.13c2-.8,4.26-1.71,7.12-2.43,5.11-1.29,8.95-1.87,12.04-2.33,5.38-.81,8.63-1.3,10.81-4.95,2.18-3.65,3.07-8.3,3.68-12.59.35-2.46.71-4.97.94-7.33l.11-1.08c.21-2.15.41-4.16.54-6.07l.03-.5c.07-1.02.13-1.97.16-2.89l.05-1.66c.02-.89.04-1.7.08-2.43.05-.84.06-1.7.06-2.56.01-1.24.02-2.53.17-3.79.22-1.92.66-3.53,1.39-5.07,1.32-2.78,3.81-4.29,6.22-5.76,2.47-1.5,4.81-2.92,5.26-5.57.57-3.37-1.56-5.14-4.51-7.58-1.72-1.43-3.87-3.2-6.21-5.85-1.06-1.2-2.12-2.68-3.02-3.97-.37-.53-.74-1.08-1.1-1.64-1.5-2.26-3.19-4.82-6.06-7.48-2.33-2.16-4.2-3.59-5.71-4.75l-1.49-1.13c-3.81-2.8-6.02-6.27-8.17-9.63-1.94-3.04-3.95-6.18-7.07-8.68-6.1-4.88-12.9-5.21-18.9-5.51-5.13-.25-9.56-.47-12.37-3.47-1.34-1.43-1.81-3.01-2.32-4.69-.59-1.95-1.26-4.16-3.41-5.96-2.5-2.08-5.51-1.82-8.43-1.57-2.33.2-4.75.41-7.29-.4-4.66-1.48-7.82-4.85-10.51-8.22h31.15c.36,1.02.54,2.14.74,3.34.39,2.38.84,5.08,2.82,7.62,3.84,4.94,10.01,5.06,16.55,5.18,6.77.13,14.44.28,21.35,5.6,3.56,2.75,5.79,6.11,8.14,9.68,2.9,4.38,5.9,8.91,11.6,12.64l1.76,1.17c1.95,1.3,4.37,2.92,7.43,5.49,3.51,2.96,5.59,5.73,7.6,8.4.53.7,1.04,1.39,1.57,2.06,1.68,2.13,3.07,3.74,4.4,5.06,3.6,3.61,6.77,5.86,9.32,7.68,3.59,2.56,5.04,3.68,4.8,5.71-.18,1.49-1.87,2.51-4.61,4.05-3.19,1.79-7.17,4.03-9.12,8.61-.96,2.26-1.46,4.71-1.51,7.48-.04,1.95.17,3.85.36,5.69.09.88.19,1.75.25,2.61.07.96.18,2.05.3,3.25l.2,2.11c.13,1.36.22,2.8.31,4.35.16,2.62.27,5.64.33,9.22.05,2.65-.02,5.65-.21,9.44-.34,6.54-1.32,11.05-3.07,14.18-1.69,3.01-3.96,3.41-10.88,4.21-3.94.46-9.33,1.09-16.42,2.7-3.94.9-7,1.97-10.05,3.08-3.13,1.14-5.5,2.24-7.41,3.12-3.8,1.76-6.06,2.82-10.55,2.56-.68-.04-1.35-.09-2-.17-6.66-.88-11.19-3.87-15.19-6.51l-1.55-1.01c-3.8-2.44-7.3-4.28-11.71-2.05-3.06,1.55-5.55,4.52-7.82,9.33-1.52,3.2-2.74,6.76-3.91,10.21-1.6,4.69-3.11,9.13-5.09,11.64-.76,1-1.54,1.56-2.38,1.72-2.76.5-5.48-3.1-8.37-6.94-1.93-2.56-3.92-5.22-6.26-7.12-1.84-1.5-3.81-2.23-5.99-2.23-.23,0-.47,0-.71.03-3.63.26-5.96,2.59-8.02,4.65-2.06,2.06-3.83,3.84-6.7,3.97-3.42.16-5.78-1.69-9.35-4.49-3.13-2.46-7.03-5.53-13.1-8.34-2.34-1.09-4.29-1.71-6.01-2.26-2.8-.9-4.83-1.54-6.94-3.73-2.76-2.86-3.73-5.43-4.86-8.42-.83-2.2-1.68-4.47-3.33-6.98-3.06-4.67-7.34-6.67-11.47-8.33-3.4-1.36-7.3-2.71-10.7-3.7-4.94-1.44-10.25-4.13-16.23-8.23-2.46-1.69-3.54-2.78-5.68-4.96-1.83-1.86-4.34-4.41-9-8.64-.36-.33-.71-.68-1.08-1.05l-.83-.82c-3.24-3.11-6.15-6.05-8.86-8.78l-3.22-3.24c-2.7-2.7-5.26-5.06-7.66-7.24-2.4-2.19-4.6-4.11-6.58-5.84-1.19-1.03-2.29-2-3.31-2.91-3.64-3.25-5.19-5.34-5.54-7.45-.37-2.26,2.35-5.04,8.58-10.41,3.49-3.01,5.09-4.57,6.95-6.38,1.17-1.14,2.46-2.39,4.4-4.19,5.75-5.31,9.68-10.16,10.68-11.67,3.98-6.01,11.1-8.17,17.99-10.26,2.49-.75,4.84-1.47,7-2.35,4.62-1.88,9.12-4.37,10.76-9.75.65-2.14.49-3.88.36-5.42-.16-1.81-.3-3.37.73-5.64,1.08-2.38,2.94-4.25,5.68-5.71.56-.3,1.15-.49,1.73-.68l.43-.15c.88-.31,1.79-.38,2.76-.46.6-.05,1.21-.1,1.83-.2l.97-.15c1.04-.15,2.08-.31,3.15-.58.5-.13,1.01-.24,1.51-.35l.71-.16c2-.45,4.09-1.08,6.22-1.88h47.67Zm-59.19,0c-.17.03-.34.05-.5.08l-1,.15c-.55.09-1.08.13-1.61.18-1.1.09-2.24.19-3.46.61l-.41.14c-.71.23-1.44.48-2.19.88-3.28,1.75-5.62,4.13-6.96,7.08-1.35,2.97-1.15,5.16-.98,7.1.13,1.46.24,2.72-.24,4.32-1.22,3.98-4.51,6.03-9.07,7.9-2.04.83-4.33,1.53-6.75,2.26-7.04,2.14-15.02,4.56-19.57,11.44-.9,1.36-4.72,6.05-10.23,11.13-1.97,1.82-3.27,3.08-4.45,4.24-1.83,1.78-3.4,3.31-6.82,6.27-6.97,6.01-10.19,9.27-9.55,13.1.54,3.28,2.98,6.03,6.48,9.15,1.03.92,2.15,1.89,3.34,2.94,1.97,1.71,4.15,3.62,6.54,5.79,2.37,2.16,4.9,4.5,7.56,7.15l3.21,3.23c2.72,2.74,5.65,5.7,8.91,8.83l.78.77c.4.4.78.79,1.18,1.15,4.6,4.17,7.08,6.68,8.89,8.52,2.2,2.24,3.42,3.47,6.11,5.32,6.24,4.28,11.82,7.1,17.06,8.63,3.32.97,7.12,2.28,10.43,3.61,4.63,1.86,7.77,3.63,10.11,7.22,1.47,2.24,2.26,4.36,3.04,6.41,1.14,3.01,2.31,6.13,5.49,9.42,2.62,2.71,5.19,3.53,8.15,4.48,1.64.52,3.5,1.12,5.67,2.13,5.77,2.67,9.52,5.62,12.53,7.99,3.79,2.98,6.77,5.33,11.3,5.11,4-.19,6.46-2.65,8.63-4.83,1.94-1.94,3.62-3.62,6.16-3.8,1.73-.12,3.19.38,4.65,1.56,2.05,1.67,3.94,4.18,5.76,6.61,3.15,4.19,6.14,8.17,10.1,8.17.37,0,.76-.04,1.15-.11,1.56-.29,2.96-1.24,4.15-2.79,2.28-2.89,3.87-7.55,5.55-12.49,1.15-3.36,2.34-6.85,3.79-9.9,1.98-4.2,4.04-6.73,6.5-7.97,2.8-1.42,4.98-.56,8.81,1.9l1.52.99c4.05,2.67,9.09,6,16.41,6.96.72.09,1.45.15,2.21.19,5.17.31,8.02-1.01,11.94-2.82,1.95-.9,4.16-1.93,7.18-3.02,2.37-.86,5.61-2.04,9.7-2.97,6.93-1.58,12.02-2.17,16.11-2.65,6.83-.79,10.59-1.23,13.09-5.69,2.01-3.58,3.06-8.35,3.43-15.45.2-3.87.27-6.93.22-9.64-.06-3.62-.17-6.68-.33-9.35-.1-1.58-.19-3.05-.32-4.44l-.21-2.13c-.12-1.17-.22-2.24-.29-3.18-.07-.89-.16-1.79-.26-2.7-.19-1.75-.38-3.56-.34-5.33.05-2.42.45-4.45,1.28-6.39,1.56-3.67,4.91-5.55,7.87-7.21,2.93-1.65,5.7-3.2,6.07-6.24.47-3.84-2.24-5.77-6-8.44-2.46-1.75-5.52-3.93-8.95-7.36-1.24-1.24-2.56-2.77-4.16-4.81-.51-.65-1.02-1.33-1.53-2.01-2.01-2.67-4.3-5.71-8.06-8.88-3.18-2.68-5.68-4.35-7.68-5.69l-1.8-1.19c-5.19-3.39-8.01-7.66-10.75-11.8-2.38-3.61-4.85-7.33-8.8-10.38-7.68-5.91-15.86-6.07-23.08-6.21-6.32-.12-11.31-.22-14.3-4.06-1.52-1.96-1.87-4.07-2.24-6.31-.16-.95-.32-1.91-.57-2.86h6.08c4.13,5.08,10.86,5.08,17.99,5.06,7.96-.02,17.05-.03,25.54,6.34,4.39,3.3,7.06,7.24,9.88,11.41,3.5,5.17,7.11,10.52,14.24,14.81l2.1,1.27c2.44,1.47,5.47,3.31,9.36,6.39,4.4,3.5,7.05,6.73,9.6,9.86.67.82,1.33,1.62,1.99,2.41,2.02,2.37,3.84,4.3,5.55,5.89,4.72,4.38,8.99,7.13,12.11,9.14,4.51,2.91,6.34,4.18,6.12,6.62-.15,1.73-2.13,2.87-5.35,4.58-3.86,2.05-8.67,4.6-10.87,10.18-1.06,2.68-1.51,5.61-1.36,8.93.11,2.48.55,4.92.97,7.28.17.93.33,1.86.48,2.78.17,1.09.39,2.33.63,3.7l.5,2.87c.29,1.69.55,3.48.83,5.4.5,3.59.94,7.42,1.29,11.38.31,3.51.49,7.38.52,11.49.05,7.91-.86,13.34-2.87,17.1-1.97,3.69-4.7,4.11-13.03,4.9-4.89.46-11.6,1.1-20.53,2.99-4.91,1.04-8.81,2.29-12.3,3.48-3.85,1.32-6.75,2.59-9.09,3.62-4.69,2.06-7.51,3.3-13.1,2.83-.85-.07-1.68-.16-2.48-.29-8.26-1.33-13.81-5.28-18.7-8.76l-1.89-1.33c-4.53-3.14-8.7-5.53-14.01-2.93-3.68,1.81-6.64,5.36-9.33,11.19-1.82,3.93-3.25,8.33-4.64,12.58-1.86,5.72-3.62,11.11-5.97,14.16-.96,1.28-1.96,1.99-3.04,2.17-3.47.55-6.68-4.03-10.13-8.92-2.36-3.35-4.8-6.81-7.69-9.24-2.26-1.9-4.65-2.83-7.28-2.83-.21,0-.42,0-.63.02-4.36.24-7.01,2.96-9.57,5.6-2.39,2.45-4.64,4.77-8.22,4.88-3.97.18-6.47-2.15-10.3-5.58-3.56-3.19-8-7.17-15.32-10.76-2.74-1.34-4.98-2.11-6.96-2.78-3.32-1.13-5.51-1.87-7.92-4.58-3.1-3.49-4.07-6.75-5.09-10.2-.8-2.7-1.62-5.49-3.46-8.57-3.1-5.16-7.5-7.6-13.16-9.69-3.39-1.25-7.49-2.52-12.55-3.89-6.1-1.65-12.6-4.67-19.32-8.96-2.88-1.84-4.02-2.93-6.51-5.32-2.19-2.1-5.19-4.97-11.01-9.95-.43-.37-.85-.76-1.29-1.16l-1.02-.93c-3.47-3.09-6.65-6.01-9.61-8.72-1.77-1.62-3.47-3.18-5.1-4.66-3.23-2.93-6.23-5.46-9.27-8.02-2.16-1.81-4.16-3.46-6-4.97-2.15-1.76-4.07-3.34-5.76-4.8-4.31-3.72-6.1-6.14-6.37-8.65-.32-2.92,4.13-6.75,11.51-12.71,5.7-4.61,7.52-6.2,11.15-9.37l3.51-3.05c7-6.07,12.21-11.92,13.51-13.65,5.33-7.11,14.15-9.47,22.68-11.76,3.03-.81,5.89-1.58,8.52-2.54,5.35-1.96,11.08-4.84,12.98-11.3.75-2.56.52-4.54.3-6.46-.23-1.95-.42-3.66.39-5.99h22.19ZM2.92,2.92h7.49c-2.54.87-5.05,1.84-7.49,2.97v-2.97Zm0,6.24c5.69-2.81,11.86-4.72,18.02-6.24h30.61c-2.63.66-5.39,1.26-8.26,1.89C30.04,7.68,15.03,10.95,4.82,21.84c-.43.46-1.07,1.12-1.9,1.94v-14.63Zm0,18.71c1.9-1.82,3.28-3.23,4.03-4.03C16.54,13.61,31.08,10.45,43.91,7.66c4.57-.99,8.89-1.93,12.86-3.13,1.57-.48,3.17-1,4.73-1.61h16.72c-2.54,2.5-6.34,4.47-11.83,6.21-3.42,1.09-7.2,1.95-11.21,2.87-11.69,2.67-24.94,5.71-33.71,15.63-1.39,1.57-8.58,9.04-18.56,17.1v-16.86Zm0,20.6c.51-.4,1.03-.82,1.59-1.27,10.09-8.12,17.4-15.64,19.16-17.64,8.15-9.22,20.91-12.14,32.18-14.71,4.07-.93,7.91-1.81,11.44-2.93,5.49-1.75,11.25-4.19,14.77-9h8.54c-.03.86-.15,1.76-.43,2.74-1.44,5.01-5.3,8.16-13.31,10.87-2.97,1-6.26,1.81-9.75,2.66-10.14,2.48-21.63,5.29-28.98,14.23-1.63,1.98-7.91,8.58-15.94,15.25-6.66,5.54-8.51,6.96-14.61,11.68l-3.27,2.53c-.48.37-.93.72-1.39,1.08v-15.48Zm0,19.19c.99-.78,2.05-1.6,3.18-2.48l3.27-2.53c6.14-4.74,7.99-6.17,14.69-11.74,8.27-6.87,14.58-13.5,16.33-15.64,6.73-8.18,17.72-10.87,27.42-13.24,3.55-.87,6.9-1.69,9.99-2.73,6.3-2.13,13.02-5.32,15.19-12.84.37-1.29.51-2.45.54-3.54h5.42c-.67,2.51-.46,4.52-.25,6.33.21,1.78.38,3.32-.2,5.3-1.53,5.2-6.28,7.58-11.19,9.38-2.51.92-5.3,1.67-8.27,2.46-8.59,2.3-18.32,4.91-24.26,12.83-1.24,1.65-6.26,7.28-13.08,13.19l-3.52,3.06c-3.6,3.14-5.41,4.72-11.07,9.3-9.11,7.36-13.05,11.03-12.58,15.3.42,3.84,3.25,6.99,7.37,10.54,1.71,1.47,3.65,3.07,5.82,4.85,1.83,1.5,3.82,3.14,5.97,4.95,3.02,2.54,5.99,5.06,9.19,7.95,1.63,1.48,3.32,3.03,5.09,4.65,2.97,2.72,6.16,5.65,9.64,8.75l.98.89c.46.43.92.85,1.37,1.24,5.76,4.92,8.72,7.76,10.89,9.84,2.48,2.37,3.84,3.68,6.96,5.67,7.07,4.52,13.65,7.57,20.13,9.32,4.98,1.35,9,2.59,12.31,3.81,5.22,1.93,8.99,4.01,11.66,8.45,1.65,2.76,2.42,5.37,3.17,7.9,1.07,3.6,2.17,7.33,5.71,11.31,2.92,3.28,5.68,4.22,9.16,5.4,1.89.64,4.04,1.37,6.61,2.63,6.96,3.42,11.23,7.24,14.66,10.31,4.04,3.62,7.24,6.44,12.34,6.32,4.75-.15,7.66-3.13,10.22-5.77,2.37-2.44,4.42-4.54,7.64-4.72,2.13-.13,4,.56,5.87,2.13,2.6,2.18,4.93,5.49,7.18,8.69,3.7,5.24,7.2,10.22,11.86,10.22.37,0,.76-.03,1.14-.1,1.83-.31,3.47-1.42,4.88-3.28,2.65-3.43,4.48-9.06,6.43-15.03,1.36-4.17,2.76-8.48,4.51-12.26,2.39-5.18,4.92-8.29,7.96-9.79,3.57-1.75,6.41-.52,11.06,2.71l1.86,1.31c4.9,3.49,11,7.83,19.94,9.27.87.14,1.77.24,2.69.32,6.34.55,9.58-.89,14.52-3.07,2.4-1.06,5.12-2.25,8.86-3.53,3.4-1.16,7.2-2.38,11.96-3.39,8.77-1.86,15.38-2.48,20.2-2.94,8.08-.76,12.53-1.19,15.33-6.43,2.25-4.21,3.27-10.09,3.22-18.5-.03-4.19-.21-8.14-.53-11.73-.35-4.01-.79-7.89-1.31-11.53-.28-1.96-.55-3.77-.84-5.48l-.5-2.89c-.24-1.35-.45-2.57-.62-3.65-.15-.94-.32-1.89-.49-2.84-.41-2.27-.83-4.61-.93-6.9-.13-2.95.24-5.4,1.16-7.73,1.81-4.57,5.91-6.75,9.52-8.67,3.39-1.8,6.59-3.5,6.89-6.9.38-4.29-2.9-6.41-7.45-9.33-3.2-2.06-7.18-4.62-11.7-8.83-1.63-1.52-3.37-3.36-5.32-5.65-.65-.77-1.3-1.55-1.95-2.36-2.53-3.1-5.4-6.61-10.05-10.3-4.02-3.2-7.15-5.09-9.66-6.61l-2.11-1.27c-6.57-3.96-9.85-8.81-13.33-13.95-2.83-4.19-5.76-8.51-10.55-12.11-9.27-6.96-19.25-6.92-27.29-6.92-5.61.03-10.33.02-13.66-2.14h48.88c.51.33,1.01.67,1.52,1.05,5.22,3.85,8.33,8.37,11.62,13.15,4.1,5.95,8.33,12.11,16.88,16.98l2.44,1.38c2.93,1.65,6.57,3.69,11.28,7.28,5.31,4.05,8.52,7.75,11.62,11.34.81.93,1.59,1.84,2.4,2.73,2.38,2.64,4.58,4.84,6.71,6.72,5.83,5.14,11.07,8.29,14.9,10.59,5.43,3.26,7.63,4.7,7.45,7.57-.13,2-2.4,3.25-6.1,5.13-4.53,2.3-10.16,5.17-12.61,11.72-1.15,3.09-1.55,6.48-1.21,10.36.27,3.01.96,6.01,1.63,8.9.23.97.45,1.94.66,2.91.25,1.15.55,2.46.88,3.9l.88,3.87c.44,2.01.89,4.15,1.34,6.45.88,4.49,1.63,9.05,2.26,13.55.6,4.31,1.03,9,1.25,13.55.44,9.15-.43,15.7-2.67,20.04-2.36,4.58-6.12,4.88-15.2,5.6-5.85.47-13.85,1.11-24.64,3.28-6.14,1.24-11,2.73-14.55,3.89-4.57,1.49-8.01,2.95-10.77,4.12-5.59,2.37-8.95,3.79-15.65,3.1-1.02-.11-2-.24-2.96-.41-9.87-1.78-16.44-6.69-22.23-11.03-.76-.57-1.5-1.12-2.22-1.65-5.26-3.84-10.1-6.77-16.3-3.8-4.3,2.06-7.74,6.21-10.83,13.04-2.12,4.67-3.77,9.9-5.36,14.96-2.12,6.74-4.13,13.1-6.85,16.68-1.17,1.56-2.38,2.42-3.72,2.63-4.12.66-7.89-4.96-11.9-10.91-2.79-4.13-5.67-8.4-9.11-11.36-2.68-2.3-5.48-3.42-8.54-3.42-.19,0-.38,0-.58.01-5.09.23-8.15,3.44-11.11,6.54-2.81,2.94-5.45,5.72-9.74,5.8-4.36.09-7.2-2.61-11.33-6.68-3.98-3.92-8.92-8.8-17.45-13.17-3.13-1.6-5.67-2.5-7.9-3.29-3.73-1.33-6.2-2.2-8.91-5.44-3.45-4.13-4.36-7.95-5.33-11.99-.76-3.19-1.55-6.5-3.58-10.14-3.42-6.1-8.4-8.82-14.83-11.03-4.54-1.56-9.53-2.84-14.41-4.08-7.34-1.87-14.88-5.13-22.41-9.69-3.3-2-4.57-3.16-7.36-5.72-2.4-2.2-6.02-5.51-12.99-11.21-.49-.4-.99-.83-1.49-1.27l-1.22-1.05c-3.3-2.78-6.38-5.41-9.29-7.89-2.85-2.43-5.52-4.71-8.06-6.85-3.8-3.19-7.31-5.99-10.87-8.81-1.91-1.51-3.7-2.91-5.38-4.22-1.49-1.16-2.88-2.25-4.18-3.28v-25.69Zm386.88,249.27c-23.79-4.22-39.17-17.35-51.58-27.94-12.95-11.05-23.17-19.78-36.8-13.66-17.6,7.91-25.1,34.28-31.72,57.54-5.7,20.03-11.08,38.95-21.5,40.21-8.88,1.1-16.44-11.52-24.39-24.86-9.42-15.82-20.08-33.73-36.27-33.73-.09,0-.19,0-.29,0-10.06.13-16.01,6.73-21.76,13.12-5.75,6.39-11.18,12.46-20.53,12.25-8.49-.16-13-6.23-19.24-14.63-6.68-9-15-20.19-31.74-29.85-5.83-3.36-10.57-5.3-14.38-6.85-6.7-2.73-11.13-4.54-15.96-11.62-5.96-8.73-6.54-16.57-7.15-24.87-.48-6.6-.98-13.42-4.27-20.86-7.64-17.28-22.2-19.91-42.34-23.54-2.24-.41-4.56-.82-6.95-1.28v-7.17c2.68.66,5.21,1.22,7.55,1.71,3.54.73,6.94,1.37,10.19,1.98,5.47,1.03,10.64,1.99,15.21,3.21,10.21,2.73,17.99,6.72,22.79,17.34,2.91,6.45,3.43,12.52,3.93,18.39.66,7.73,1.35,15.72,7.39,24.43,5.03,7.24,9.74,9.14,16.25,11.77,3.67,1.48,7.83,3.16,13.11,6.18,15.07,8.61,22.72,18.65,28.86,26.71,6.17,8.1,11.04,14.49,20.36,14.63,9.94.12,15.66-6.16,21.2-12.28,5.16-5.71,10.04-11.1,18.13-11.22,5.08-.09,9.7,1.94,14.39,6.19,6.43,5.81,11.8,14.76,17,23.42,7.51,12.51,14.63,24.35,24.05,24.35.47,0,.94-.03,1.42-.09,3.7-.46,6.91-2.62,9.82-6.6,5.25-7.21,8.8-19.6,12.57-32.71,2.82-9.83,5.73-19.99,9.57-28.87,5.16-11.96,11.16-19.35,18.33-22.59,9.06-4.1,16.17-.34,26.91,8.54,1.38,1.14,2.79,2.33,4.25,3.56,10.86,9.18,24.38,20.59,44.59,25.28,1.97.46,4.01.85,6.06,1.16,5.09.78,9.23.93,12.98.62v12.66Zm0-15.61c-3.64.33-7.63.2-12.54-.55-1.98-.3-3.94-.68-5.84-1.12-19.52-4.52-32.74-15.69-43.36-24.66-1.46-1.24-2.88-2.44-4.27-3.58-9.62-7.95-18.52-14.12-29.97-8.95-7.87,3.55-14.35,11.44-19.81,24.1-3.91,9.05-6.85,19.31-9.7,29.22-3.69,12.86-7.17,25.01-12.12,31.8-2.4,3.3-4.95,5.07-7.81,5.43-8.28,1.02-15.22-10.58-22.6-22.87-5.31-8.84-10.8-17.98-17.55-24.08-5.16-4.67-10.41-6.94-16.04-6.94-.12,0-.23,0-.35,0-9.36.14-14.9,6.26-20.25,12.18-5.26,5.82-10.24,11.33-18.66,11.33-.11,0-.22,0-.33,0-7.9-.11-11.95-5.43-18.08-13.48-6.3-8.28-14.15-18.58-29.73-27.48-5.45-3.12-9.89-4.91-13.46-6.35-6.27-2.53-10.41-4.2-14.94-10.72-5.6-8.07-6.22-15.33-6.88-23.01-.52-6.12-1.07-12.44-4.18-19.34-5.58-12.36-15.16-16.42-24.69-18.96-4.68-1.25-9.9-2.23-15.43-3.26-3.23-.6-6.61-1.24-10.13-1.97-2.51-.52-5.23-1.12-8.14-1.85v-8.3c7.93,2.79,14.81,4.45,20.05,5.56,3.06.65,6.02,1.23,8.87,1.78,5.27,1.03,10.24,2,14.66,3.21,9.47,2.6,16.69,6.33,21.18,16.06,2.73,5.92,3.29,11.5,3.84,16.89.72,7.14,1.46,14.52,7.14,22.56,4.73,6.67,9.13,8.43,15.23,10.86,3.42,1.36,7.29,2.91,12.19,5.68,13.93,7.86,21.1,17.01,26.86,24.36,5.85,7.46,10.46,13.35,19.18,13.45,9.16.11,14.51-5.72,19.63-11.36,4.75-5.22,9.23-10.15,16.62-10.29,4.58-.07,8.89,1.75,13.18,5.6,5.88,5.29,10.83,13.43,15.61,21.31,6.97,11.47,13.56,22.34,22.3,22.34.45,0,.91-.03,1.37-.09,3.44-.43,6.43-2.44,9.12-6.13,4.88-6.67,8.19-18.1,11.69-30.19,2.61-9.02,5.31-18.34,8.85-26.49,4.76-10.98,10.27-17.77,16.85-20.76,8.29-3.76,14.8-.36,24.64,7.7,1.29,1.05,2.61,2.15,3.97,3.28,10,8.34,22.44,18.73,41,22.95,1.82.41,3.7.76,5.58,1.04,11.9,1.77,18.51-.24,27.28-3.58v17.68Zm0-20.81c-9.16,3.53-15.2,5.55-26.85,3.82-1.81-.27-3.61-.61-5.36-1-17.87-4.07-30.02-14.2-39.78-22.34-1.37-1.14-2.7-2.25-4-3.3-8.55-7.01-17.11-12.91-27.7-8.1-7.27,3.3-13.26,10.58-18.32,22.26-3.61,8.32-6.34,17.74-8.97,26.85-3.43,11.84-6.66,23.03-11.24,29.28-2.19,3.01-4.52,4.63-7.13,4.96-7.53.95-13.99-9.64-20.81-20.87-4.89-8.06-9.95-16.39-16.15-21.96-4.75-4.28-9.6-6.36-14.82-6.36-.12,0-.24,0-.36,0-8.65.16-13.77,5.79-18.73,11.24-4.91,5.4-9.5,10.45-17.44,10.4-7.32-.09-11.14-4.96-16.92-12.33-5.92-7.55-13.29-16.95-27.72-25.1-5.07-2.87-9.22-4.52-12.55-5.85-5.84-2.33-9.7-3.86-13.93-9.83-5.23-7.41-5.9-14.09-6.62-21.16-.57-5.63-1.15-11.46-4.09-17.82-5.26-11.38-14.19-15.21-23.06-17.65-4.52-1.24-9.55-2.22-14.87-3.26-2.83-.55-5.78-1.13-8.82-1.78-5.36-1.14-12.46-2.86-20.66-5.8v-10.14c10.25,5.11,20.67,8.76,32.55,11.35,2.56.56,5.06,1.07,7.49,1.57,5.09,1.04,9.89,2.02,14.17,3.24,8.72,2.48,15.39,5.95,19.58,14.77,2.55,5.4,3.15,10.48,3.74,15.4.77,6.55,1.57,13.32,6.89,20.68,4.43,6.11,8.53,7.72,14.21,9.95,3.17,1.24,6.75,2.65,11.27,5.18,12.78,7.12,19.48,15.38,24.86,22.01,5.53,6.82,9.9,12.21,18.01,12.27,8.45.04,13.35-5.27,18.07-10.43,4.34-4.74,8.43-9.21,15.12-9.35,4.28-.09,8.08,1.55,11.96,5.02,5.33,4.77,9.84,12.1,14.21,19.2,6.42,10.44,12.5,20.33,20.57,20.33.44,0,.88-.03,1.33-.09,3.18-.41,5.94-2.26,8.42-5.66,4.51-6.13,7.57-16.59,10.81-27.66,2.4-8.21,4.89-16.7,8.12-24.12,4.36-10,9.38-16.19,15.36-18.93,7.47-3.41,13.4-.37,22.38,6.86,1.13.91,2.29,1.87,3.48,2.85,9.18,7.57,20.6,16.99,37.63,20.78,1.65.36,3.35.67,5.1.92,11.94,1.72,18.08-.68,27.37-4.32,3.98-1.56,8.42-3.29,14.2-5.12v19.18Zm0-22.24c-6.35,1.97-11.25,3.88-15.27,5.46-9.17,3.59-14.71,5.76-25.89,4.15-1.68-.24-3.31-.53-4.88-.88-16.34-3.63-27.46-12.81-36.4-20.18-1.2-.99-2.37-1.95-3.51-2.88-8.17-6.58-15.73-11.67-25.42-7.24-6.66,3.05-12.17,9.73-16.82,20.42-3.31,7.59-5.82,16.17-8.25,24.47-3.17,10.82-6.16,21.04-10.36,26.76-1.99,2.72-4.1,4.19-6.44,4.49-6.91.91-12.77-8.71-19.03-18.88-4.47-7.27-9.1-14.79-14.75-19.84-4.34-3.88-8.78-5.77-13.57-5.77-.13,0-.27,0-.4,0-7.94.17-12.65,5.32-17.21,10.3-4.46,4.88-8.68,9.48-15.76,9.48h-.13c-6.74-.05-10.33-4.49-15.77-11.19-5.54-6.83-12.43-15.33-25.7-22.73-4.69-2.62-8.38-4.07-11.63-5.34-5.41-2.12-8.99-3.53-12.91-8.94-4.87-6.75-5.59-12.85-6.35-19.31-.61-5.15-1.24-10.47-4-16.3-4.93-10.4-13.21-14-21.42-16.33-4.38-1.25-9.24-2.24-14.39-3.29-2.41-.49-4.9-1-7.45-1.56-12.14-2.65-22.73-6.42-33.17-11.77v-14.11c.79.66,1.5,1.25,2.15,1.79,3.98,3.34,5.63,4.72,10.49,7.36,10.27,5.57,20.87,9.53,32.41,12.13,2.05.46,4.07.9,6.05,1.32,4.92,1.06,9.57,2.05,13.74,3.28,7.99,2.36,14.1,5.56,17.99,13.5,2.37,4.87,3.01,9.46,3.63,13.9.83,5.96,1.69,12.12,6.64,18.81,4.12,5.54,8.12,7.08,13.19,9.03,2.91,1.12,6.22,2.4,10.35,4.68,11.63,6.38,17.85,13.75,22.85,19.67,5.22,6.18,9.34,11.06,16.85,11.09h.06c7.69,0,12.14-4.83,16.45-9.5,3.92-4.25,7.62-8.27,13.62-8.42,3.84-.12,7.27,1.36,10.74,4.44,4.79,4.25,8.86,10.77,12.81,17.08,5.88,9.41,11.44,18.32,18.84,18.32.42,0,.84-.03,1.27-.09,2.92-.4,5.44-2.09,7.72-5.19,4.13-5.59,6.95-15.08,9.92-25.13,2.2-7.4,4.46-15.06,7.41-21.75,3.95-9.01,8.49-14.61,13.88-17.1,6.68-3.08,12.01-.39,20.1,6.02,1.04.82,2.11,1.69,3.2,2.58,8.31,6.75,18.66,15.15,34.05,18.45,1.49.32,3.03.58,4.62.8,10.82,1.5,16.39-.72,24.8-4.06,4.2-1.67,8.96-3.56,15.57-5.55,5.08-1.53,10.19-2.83,15.49-3.95v17.51Zm0-20.49c-5.6,1.16-10.99,2.52-16.33,4.13-6.73,2.03-11.77,4.02-15.81,5.63-8.27,3.29-13.25,5.28-23.33,3.89-1.51-.21-2.98-.46-4.4-.76-14.71-3.15-24.75-11.31-32.82-17.86-1.1-.9-2.18-1.77-3.23-2.6-7.44-5.9-14.33-10.45-23.14-6.38-6.06,2.8-11.07,8.88-15.33,18.57-3.02,6.86-5.31,14.61-7.53,22.1-2.91,9.8-5.65,19.05-9.48,24.23-1.78,2.42-3.67,3.74-5.76,4.02-6.16.85-11.55-7.77-17.24-16.88-4.05-6.48-8.24-13.19-13.34-17.72-3.92-3.49-7.96-5.18-12.32-5.18-.14,0-.29,0-.43,0-7.23.19-11.53,4.85-15.69,9.37-4.06,4.4-7.89,8.56-14.3,8.56h-.05c-6.16-.02-9.53-4.01-14.62-10.05-5.15-6.11-11.57-13.71-23.68-20.35-4.3-2.37-7.71-3.69-10.71-4.84-4.99-1.92-8.28-3.19-11.9-8.05-4.51-6.09-5.27-11.62-6.09-17.47-.65-4.67-1.32-9.49-3.9-14.78-4.61-9.42-12.23-12.78-19.78-15.02-4.27-1.26-8.98-2.27-13.95-3.34-1.97-.42-3.98-.85-6.02-1.31-11.28-2.54-21.63-6.41-31.66-11.85-4.6-2.5-6.08-3.73-10.01-7.03-1.11-.93-2.42-2.02-4.02-3.34v-15.76c.62.49,1.23.98,1.83,1.44,9.16,7.05,13.75,10.99,16.79,13.59,3.55,3.05,5.18,4.44,9.6,6.91,9.48,5.3,19.07,9.03,29.34,11.42l4.43,1.01c4.82,1.09,9.38,2.12,13.49,3.39,7.25,2.24,12.81,5.18,16.39,12.22,2.2,4.34,2.87,8.43,3.52,12.4.88,5.37,1.8,10.93,6.4,16.94,3.81,4.98,7.5,6.37,12.17,8.12,2.67,1,5.69,2.14,9.44,4.18,10.48,5.63,16.22,12.12,20.84,17.33,4.89,5.53,8.76,9.9,15.64,9.9h.04c6.99-.02,11.03-4.37,14.94-8.57,3.51-3.77,6.82-7.33,12.12-7.5,3.31-.05,6.46,1.16,9.52,3.86,4.24,3.73,7.88,9.45,11.4,14.97,5.33,8.37,10.39,16.3,17.11,16.3.4,0,.81-.03,1.23-.09,2.66-.38,4.95-1.92,7.01-4.71,3.76-5.05,6.33-13.58,9.05-22.61,1.99-6.59,4.04-13.41,6.68-19.38,3.55-8.03,7.61-13.03,12.4-15.26,5.89-2.74,10.63-.41,17.84,5.19.93.72,1.88,1.48,2.86,2.26,7.46,5.94,16.74,13.33,30.53,16.16,1.33.27,2.71.5,4.13.68,9.69,1.26,14.68-.76,22.23-3.81,3.75-1.52,8-3.23,13.9-5.05,6.31-1.94,12.26-3.41,18.73-4.62,5.68-1.07,10.76-1.81,15.3-2.34v15.72Zm0-18.67c-4.69.55-9.94,1.31-15.84,2.41-6.58,1.23-12.63,2.73-19.05,4.7-6.02,1.85-10.52,3.67-14.13,5.13-7.38,2.98-11.84,4.79-20.76,3.62-1.35-.17-2.66-.38-3.92-.64-13.1-2.69-22.08-9.84-29.3-15.58-.99-.79-1.95-1.55-2.89-2.28-6.71-5.21-12.91-9.22-20.86-5.53-5.53,2.59-9.93,7.9-13.83,16.73-2.72,6.13-4.8,13.04-6.81,19.72-2.64,8.78-5.14,17.07-8.6,21.72-1.57,2.14-3.23,3.3-5.07,3.56-5.51.78-10.33-6.84-15.46-14.89-3.63-5.7-7.39-11.59-11.94-15.6-3.51-3.09-7.13-4.59-11.06-4.59-.16,0-.32,0-.48,0-6.52.2-10.41,4.38-14.17,8.43-3.65,3.92-7.09,7.62-12.81,7.64h-.04c-5.56,0-8.71-3.55-13.46-8.92-4.77-5.39-10.7-12.09-21.64-17.96-3.93-2.13-7.05-3.3-9.8-4.34-4.56-1.72-7.57-2.85-10.88-7.17-4.16-5.43-4.97-10.39-5.83-15.63-.69-4.18-1.4-8.5-3.8-13.24-4.28-8.44-11.25-11.57-18.14-13.69-4.22-1.31-8.83-2.35-13.71-3.45l-4.42-1.01c-9.99-2.33-19.34-5.97-28.57-11.13-4.16-2.33-5.61-3.57-9.12-6.58-3.06-2.62-7.68-6.59-16.91-13.69-.63-.48-1.26-.99-1.92-1.51l-1.69-1.32v-16.3c3.36,2.69,6.93,5.58,10.77,8.68l7.75,6.28c.58.48,1.15.95,1.71,1.4,8.05,6.36,12.13,9.97,14.84,12.36,3.24,2.87,4.72,4.17,8.7,6.48,8.69,5.03,17.28,8.54,26.26,10.72l2.62.63c4.57,1.1,9.3,2.23,13.43,3.58,6.52,2.12,11.53,4.79,14.81,10.96,2.01,3.81,2.72,7.41,3.41,10.9.94,4.78,1.92,9.73,6.16,15.06,3.52,4.42,6.9,5.66,11.18,7.24,2.4.88,5.13,1.88,8.48,3.65,9.3,4.9,14.56,10.49,18.78,14.98,4.61,4.91,8.37,8.77,14.57,8.72,6.25-.06,10.04-4.09,13.38-7.64,3.09-3.29,6.02-6.4,10.62-6.57,2.92-.09,5.65.97,8.31,3.28,3.69,3.21,6.9,8.13,10,12.87,4.79,7.33,9.32,14.28,15.36,14.28.39,0,.79-.03,1.19-.09,2.39-.36,4.45-1.74,6.31-4.24,3.39-4.51,5.71-12.07,8.18-20.08,1.78-5.79,3.61-11.77,5.96-17.01,3.15-7.05,6.72-11.45,10.91-13.43,5.15-2.43,9.12-.52,15.57,4.35.82.62,1.66,1.27,2.53,1.94,6.61,5.12,14.83,11.5,26.99,13.86,1.18.23,2.4.41,3.65.56,8.58,1.03,12.98-.8,19.66-3.56,3.3-1.36,7.04-2.91,12.22-4.55,3.89-1.23,9.28-2.82,16.48-4.21,12.46-2.41,21.67-3.05,28.39-3.51,2.94-.2,5.48-.38,7.7-.66v14.16Zm0-17.1c-2.16.29-4.74.47-7.9.69-6.8.47-16.11,1.11-28.75,3.56-7.34,1.42-12.83,3.04-16.8,4.29-5.3,1.67-9.27,3.31-12.46,4.63-6.48,2.68-10.39,4.29-18.2,3.35-1.18-.14-2.33-.31-3.44-.52-11.48-2.24-19.4-8.38-25.76-13.31-.88-.68-1.73-1.34-2.56-1.97-5.98-4.52-11.51-7.99-18.58-4.67-4.92,2.33-8.84,7.06-12.33,14.88-2.42,5.4-4.28,11.47-6.09,17.34-2.38,7.76-4.63,15.08-7.72,19.19-1.37,1.85-2.81,2.86-4.4,3.1-4.8.69-9.11-5.9-13.68-12.9-3.21-4.91-6.53-10-10.53-13.48-3.09-2.69-6.31-4.01-9.81-4.01-.17,0-.35,0-.52,0-5.8.21-9.28,3.91-12.64,7.48-3.23,3.43-6.27,6.67-11.28,6.72-4.93-.01-7.96-3.07-12.41-7.8-4.37-4.65-9.81-10.44-19.55-15.56-3.52-1.86-6.35-2.89-8.83-3.81-4.15-1.52-6.89-2.53-9.91-6.31-3.8-4.78-4.67-9.16-5.58-13.81-.73-3.69-1.48-7.5-3.69-11.7-3.74-7.04-9.29-10.03-16.49-12.37-4.24-1.38-9.02-2.53-13.65-3.64l-2.62-.63c-8.71-2.12-17.05-5.52-25.49-10.41-3.73-2.16-5.04-3.32-8.23-6.14-2.73-2.41-6.85-6.05-14.96-12.46-.54-.43-1.1-.89-1.66-1.36l-7.78-6.3c-4.55-3.68-8.72-7.05-12.61-10.15v-16.9c.77.6,1.56,1.22,2.38,1.87,1.67,1.31,3.46,2.7,5.36,4.21,3.55,2.81,7.04,5.59,10.81,8.75,2.53,2.13,5.2,4.41,8.05,6.83,2.91,2.48,6,5.12,9.3,7.9l1.19,1.02c.53.46,1.04.91,1.56,1.33,6.91,5.65,10.5,8.94,12.87,11.11,2.85,2.61,4.28,3.92,7.82,6.06,7.77,4.71,15.58,8.08,23.25,10.03,4.77,1.22,9.7,2.47,14.13,4,5.96,2.05,10.25,4.39,13.23,9.7,1.83,3.29,2.57,6.39,3.29,9.4,1,4.19,2.04,8.53,5.93,13.19,3.22,3.86,6.29,4.94,10.17,6.32,2.15.76,4.59,1.63,7.55,3.14,8.13,4.16,12.9,8.86,16.73,12.65,4.25,4.2,7.62,7.53,13.18,7.53.09,0,.18,0,.27,0,5.5-.11,8.85-3.61,11.8-6.7,2.68-2.81,5.21-5.47,9.13-5.64,2.52-.12,4.8.74,7.09,2.7,3.15,2.7,5.91,6.8,8.59,10.78,4.24,6.29,8.26,12.25,13.62,12.25.38,0,.77-.03,1.16-.09,2.09-.33,3.98-1.6,5.59-3.76,3.02-3.97,5.1-10.57,7.3-17.56,1.57-4.98,3.19-10.12,5.23-14.63,2.8-6.17,5.8-9.86,9.44-11.61,4.34-2.08,7.75-.53,13.31,3.53.72.52,1.45,1.07,2.2,1.63,5.75,4.31,12.92,9.66,23.47,11.57,1.02.19,2.09.33,3.17.44,7.45.78,11.28-.85,17.1-3.31,2.85-1.21,6.08-2.58,10.53-4.03,3.69-1.2,8.26-2.6,14.22-3.8,10.61-2.14,18.52-2.77,24.3-3.23,9.32-.74,14.46-1.15,17.56-7.18,2.52-4.88,3.47-11.72,2.99-21.52-.22-4.64-.66-9.41-1.28-13.81-.63-4.56-1.39-9.17-2.28-13.71-.45-2.32-.9-4.49-1.35-6.53l-.88-3.89c-.33-1.43-.62-2.73-.87-3.87-.21-.98-.44-1.97-.67-2.96-.65-2.8-1.32-5.69-1.57-8.5-.31-3.49.02-6.37,1.04-9.09,2.05-5.49,6.91-7.96,11.19-10.14,3.84-1.95,7.46-3.79,7.69-7.55.3-4.75-3.35-6.94-8.87-10.25-3.94-2.36-8.84-5.31-14.47-10.28-2.05-1.81-4.17-3.93-6.48-6.49-.79-.88-1.57-1.77-2.36-2.69-3.05-3.53-6.51-7.52-12.07-11.76-4.87-3.71-8.61-5.81-11.62-7.5l-2.42-1.37c-7.97-4.53-11.83-10.15-15.92-16.1-2.94-4.28-5.99-8.69-10.64-12.54h17.14c1.4,1.82,2.7,3.69,4.03,5.6,4.69,6.73,9.53,13.7,19.51,19.13l2.76,1.48c3.42,1.82,7.68,4.08,13.23,8.17,6.22,4.59,9.99,8.76,13.64,12.81.94,1.05,1.87,2.07,2.81,3.08,2.71,2.88,5.36,5.42,7.87,7.55,1.67,1.42,3.29,2.69,4.87,3.86v137.43Zm0-141.1c-.97-.76-1.96-1.55-2.98-2.41-2.42-2.06-4.99-4.53-7.63-7.33-.93-.99-1.84-2-2.77-3.03-3.57-3.95-7.62-8.43-14.07-13.2-5.72-4.22-10.08-6.54-13.59-8.4l-2.74-1.46c-9.37-5.1-13.81-11.48-18.5-18.23-.91-1.3-1.82-2.62-2.78-3.93h15.44c4.71,6.55,10.12,13.08,20,18.28l3.02,1.55c3.92,2,8.81,4.48,15.23,9.09,4.77,3.45,8.29,6.67,11.36,9.77v19.31Zm0-23.4c-2.68-2.56-5.79-5.26-9.65-8.05-6.61-4.75-11.61-7.29-15.62-9.33l-2.98-1.53c-8.51-4.48-13.43-9.89-17.74-15.69h16.25c3.98,4.28,8.88,8.34,15.69,11.83l3.39,1.68c2.99,1.46,6.49,3.19,10.67,5.73v15.37Zm0-18.77c-3.62-2.11-6.7-3.63-9.38-4.94l-3.34-1.66c-5.43-2.78-9.54-5.89-12.96-9.23h18.31c2.21,1.6,4.65,3.13,7.38,4.58v11.24Zm0-14.56c-.74-.42-1.46-.84-2.15-1.27h2.15v1.27Z"/>
      </g>
    </g>
  </g>
</svg>